<?xml version="1.0" encoding="UTF-8" standalone="no"?>
<!-- Created with Inkscape (http://www.inkscape.org/) -->

<svg
   xmlns:dc="http://purl.org/dc/elements/1.1/"
   xmlns:cc="http://creativecommons.org/ns#"
   xmlns:rdf="http://www.w3.org/1999/02/22-rdf-syntax-ns#"
   xmlns:svg="http://www.w3.org/2000/svg"
   xmlns="http://www.w3.org/2000/svg"
   xmlns:sodipodi="http://sodipodi.sourceforge.net/DTD/sodipodi-0.dtd"
   xmlns:inkscape="http://www.inkscape.org/namespaces/inkscape"
   id="svg2"
   version="1.1"
   inkscape:version="0.91 r13725"
   xml:space="preserve"
   width="161"
   height="121"
   viewBox="0 0 161 121"
   sodipodi:docname="icon-how-use-3.svg"><metadata
     id="metadata8"><rdf:RDF><cc:Work
         rdf:about=""><dc:format>image/svg+xml</dc:format><dc:type
           rdf:resource="http://purl.org/dc/dcmitype/StillImage" /><dc:title></dc:title></cc:Work></rdf:RDF></metadata><defs
     id="defs6"><clipPath
       clipPathUnits="userSpaceOnUse"
       id="clipPath16"><path
         d="m 0,86.499 148.302,0 L 148.302,0 0,0 0,86.499 Z"
         id="path18"
         inkscape:connector-curvature="0" /></clipPath></defs><sodipodi:namedview
     pagecolor="#ffffff"
     bordercolor="#666666"
     borderopacity="1"
     objecttolerance="10"
     gridtolerance="10"
     guidetolerance="10"
     inkscape:pageopacity="0"
     inkscape:pageshadow="2"
     inkscape:window-width="1920"
     inkscape:window-height="1017"
     id="namedview4"
     showgrid="false"
     inkscape:zoom="3.8084449"
     inkscape:cx="81.80038"
     inkscape:cy="69.304696"
     inkscape:window-x="-8"
     inkscape:window-y="-8"
     inkscape:window-maximized="1"
     inkscape:current-layer="g10"
     fit-margin-top="0"
     fit-margin-left="0"
     fit-margin-right="0"
     fit-margin-bottom="0" /><g
     id="g10"
     inkscape:groupmode="layer"
     inkscape:label="icon-how-use-3"
     transform="matrix(1.25,0,0,-1.25,-3.6327845e-4,121)"><g
       id="g12"
       transform="matrix(0.86850075,0,0,0.86850075,3.821668e-5,10.681667)"><g
         id="g14"
         clip-path="url(#clipPath16)"><g
           id="g20"
           transform="translate(119.7623,82.1428)"><path
             d="m 0,0 c -0.763,0 -1.384,-0.621 -1.384,-1.384 0,-0.764 0.621,-1.385 1.384,-1.385 0.763,0 1.384,0.621 1.384,1.385 C 1.384,-0.621 0.763,0 0,0 m 0,-3.459 c -1.144,0 -2.075,0.931 -2.075,2.075 0,1.144 0.931,2.075 2.075,2.075 1.144,0 2.075,-0.931 2.075,-2.075 0,-1.144 -0.931,-2.075 -2.075,-2.075"
             style="fill:#474847;fill-opacity:1;fill-rule:nonzero;stroke:none"
             id="path22"
             inkscape:connector-curvature="0" /></g><g
           id="g24"
           transform="translate(93.0879,74.359)"><path
             d="m 0,0 -9.561,0 c -1.543,0 -2.794,1.251 -2.794,2.794 0,1.543 1.251,2.794 2.794,2.794 L 0,5.588 C 1.543,5.588 2.794,4.337 2.794,2.794 2.794,1.251 1.543,0 0,0"
             style="fill:#439163;fill-opacity:1;fill-rule:nonzero;stroke:none"
             id="path26"
             inkscape:connector-curvature="0" /></g><g
           id="g28"
           transform="translate(12.9538,42.5046)"><path
             d="m 0,0 c -0.476,0 -0.95,0.181 -1.314,0.542 -0.73,0.726 -0.731,1.906 -0.006,2.635 5.634,5.658 13.135,8.775 21.119,8.775 6.72,0 13.064,-2.184 18.346,-6.316 0.811,-0.634 0.954,-1.804 0.32,-2.614 C 37.831,2.211 36.66,2.069 35.85,2.702 31.23,6.316 25.68,8.227 19.799,8.227 12.812,8.227 6.25,5.5 1.32,0.548 0.956,0.183 0.478,0 0,0"
             style="fill:#439163;fill-opacity:1;fill-rule:nonzero;stroke:none"
             id="path30"
             inkscape:connector-curvature="0" /></g><g
           id="g32"
           transform="translate(46.4938,18.8228)"><path
             d="M 0,0 1.863,-0.048 1.91,1.814 0.047,1.862 0,0 Z"
             style="fill:#439163;fill-opacity:1;fill-rule:nonzero;stroke:none"
             id="path34"
             inkscape:connector-curvature="0" /></g><g
           id="g36"
           transform="translate(54.8725,18.6082)"><path
             d="M 0,0 1.863,-0.048 1.91,1.814 0.047,1.862 0,0 Z"
             style="fill:#439163;fill-opacity:1;fill-rule:nonzero;stroke:none"
             id="path38"
             inkscape:connector-curvature="0" /></g><g
           id="g40"
           transform="translate(43.7009,18.8942)"><path
             d="M 0,0 1.863,-0.048 1.91,1.814 0.047,1.862 0,0 Z"
             style="fill:#439163;fill-opacity:1;fill-rule:nonzero;stroke:none"
             id="path42"
             inkscape:connector-curvature="0" /></g><g
           id="g44"
           transform="translate(49.2867,18.751)"><path
             d="M 0,0 1.863,-0.047 1.91,1.814 0.047,1.862 0,0 Z"
             style="fill:#439163;fill-opacity:1;fill-rule:nonzero;stroke:none"
             id="path46"
             inkscape:connector-curvature="0" /></g><g
           id="g48"
           transform="translate(40.9081,18.9661)"><path
             d="M 0,0 1.863,-0.048 1.91,1.814 0.047,1.862 0,0 Z"
             style="fill:#439163;fill-opacity:1;fill-rule:nonzero;stroke:none"
             id="path50"
             inkscape:connector-curvature="0" /></g><g
           id="g52"
           transform="translate(32.5294,19.1807)"><path
             d="M 0,0 1.863,-0.048 1.91,1.814 0.047,1.862 0,0 Z"
             style="fill:#439163;fill-opacity:1;fill-rule:nonzero;stroke:none"
             id="path54"
             inkscape:connector-curvature="0" /></g><g
           id="g56"
           transform="translate(29.3982,20.2488)"><path
             d="M 0,0 C 0.608,-0.449 1.29,-0.762 2.025,-0.931 L 2.442,0.884 C 1.957,0.996 1.508,1.202 1.106,1.499 L 0,0 Z"
             style="fill:#439163;fill-opacity:1;fill-rule:nonzero;stroke:none"
             id="path58"
             inkscape:connector-curvature="0" /></g><g
           id="g60"
           transform="translate(38.1152,19.0375)"><path
             d="M 0,0 1.863,-0.048 1.91,1.814 0.047,1.862 0,0 Z"
             style="fill:#439163;fill-opacity:1;fill-rule:nonzero;stroke:none"
             id="path62"
             inkscape:connector-curvature="0" /></g><g
           id="g64"
           transform="translate(35.3223,19.1093)"><path
             d="M 0,0 1.863,-0.048 1.91,1.814 0.047,1.862 0,0 Z"
             style="fill:#439163;fill-opacity:1;fill-rule:nonzero;stroke:none"
             id="path66"
             inkscape:connector-curvature="0" /></g><g
           id="g68"
           transform="translate(52.0796,18.6796)"><path
             d="M 0,0 1.863,-0.048 1.91,1.814 0.047,1.862 0,0 Z"
             style="fill:#439163;fill-opacity:1;fill-rule:nonzero;stroke:none"
             id="path70"
             inkscape:connector-curvature="0" /></g><g
           id="g72"
           transform="translate(71.6297,18.1785)"><path
             d="M 0,0 1.863,-0.048 1.91,1.814 0.047,1.862 0,0 Z"
             style="fill:#439163;fill-opacity:1;fill-rule:nonzero;stroke:none"
             id="path74"
             inkscape:connector-curvature="0" /></g><g
           id="g76"
           transform="translate(74.3517,20.0092)"><path
             d="m 0,0 0.187,-1.853 c 0.725,0.073 1.427,0.266 2.087,0.572 L 1.488,0.408 C 1.019,0.189 0.517,0.052 0,0"
             style="fill:#439163;fill-opacity:1;fill-rule:nonzero;stroke:none"
             id="path78"
             inkscape:connector-curvature="0" /></g><g
           id="g80"
           transform="translate(68.8369,18.2504)"><path
             d="M 0,0 1.863,-0.048 1.91,1.814 0.047,1.862 0,0 Z"
             style="fill:#439163;fill-opacity:1;fill-rule:nonzero;stroke:none"
             id="path82"
             inkscape:connector-curvature="0" /></g><g
           id="g84"
           transform="translate(76.5143,20.8018)"><path
             d="m 0,0 1.053,-1.536 c 0.599,0.411 1.123,0.916 1.556,1.5 L 1.112,1.073 C 0.803,0.655 0.428,0.294 0,0"
             style="fill:#439163;fill-opacity:1;fill-rule:nonzero;stroke:none"
             id="path86"
             inkscape:connector-curvature="0" /></g><g
           id="g88"
           transform="translate(60.4582,18.465)"><path
             d="M 0,0 1.863,-0.048 1.91,1.814 0.047,1.862 0,0 Z"
             style="fill:#439163;fill-opacity:1;fill-rule:nonzero;stroke:none"
             id="path90"
             inkscape:connector-curvature="0" /></g><g
           id="g92"
           transform="translate(57.6653,18.5364)"><path
             d="M 0,0 1.863,-0.048 1.91,1.814 0.047,1.862 0,0 Z"
             style="fill:#439163;fill-opacity:1;fill-rule:nonzero;stroke:none"
             id="path94"
             inkscape:connector-curvature="0" /></g><g
           id="g96"
           transform="translate(63.2511,18.3931)"><path
             d="M 0,0 1.863,-0.048 1.91,1.814 0.047,1.862 0,0 Z"
             style="fill:#439163;fill-opacity:1;fill-rule:nonzero;stroke:none"
             id="path98"
             inkscape:connector-curvature="0" /></g><g
           id="g100"
           transform="translate(66.044,18.3217)"><path
             d="M 0,0 1.863,-0.048 1.91,1.814 0.047,1.862 0,0 Z"
             style="fill:#439163;fill-opacity:1;fill-rule:nonzero;stroke:none"
             id="path102"
             inkscape:connector-curvature="0" /></g><g
           id="g104"
           transform="translate(73.7005,32.7914)"><path
             d="m 0,0 -40.459,-1.025 c -4.018,-0.102 -7.165,-3.33 -7.163,-7.405 0,-0.515 0.417,-0.932 0.931,-0.932 l 1.946,0 -1.507,-0.505 c 0.239,-0.713 0.616,-1.36 1.12,-1.923 l 1.388,1.243 c -0.313,0.349 -0.544,0.75 -0.703,1.185 l 49.117,0 C 4.586,-9.67 4.482,-9.972 4.336,-10.258 l 1.659,-0.847 c 0.281,0.551 0.462,1.139 0.577,1.743 l 0.905,0 c 0.515,0 0.933,0.458 0.933,0.972 C 8.41,-3.764 4.648,0 0,0"
             style="fill:#439163;fill-opacity:1;fill-rule:nonzero;stroke:none"
             id="path106"
             inkscape:connector-curvature="0" /></g><g
           id="g108"
           transform="translate(124.7708,10.99)"><path
             d="m 0,0 -11.393,11.393 c -0.192,-0.246 -0.412,-0.466 -0.659,-0.658 L -0.658,-0.658 c -3.455,-3.297 -8.088,-5.356 -13.2,-5.475 l 0,16.121 c -0.154,-0.02 -0.306,-0.047 -0.466,-0.047 -0.159,0 -0.311,0.027 -0.465,0.047 l 0,-16.121 c -5.113,0.119 -9.746,2.178 -13.2,5.475 l 11.393,11.394 c -0.246,0.191 -0.467,0.411 -0.658,0.658 L -28.648,0 c -3.296,3.455 -5.355,8.088 -5.475,13.2 l 16.121,0 c -0.019,0.155 -0.047,0.307 -0.047,0.466 0,0.159 0.028,0.311 0.047,0.466 l -16.121,0 c 0.12,5.112 2.178,9.745 5.475,13.199 l 11.394,-11.393 c 0.191,0.246 0.411,0.467 0.658,0.658 L -27.989,27.99 c 3.454,3.297 8.087,5.356 13.2,5.475 l 0,-16.121 c 0.154,0.02 0.306,0.047 0.465,0.047 0.16,0 0.312,-0.027 0.466,-0.047 l 0,16.121 c 5.113,-0.119 9.746,-2.178 13.2,-5.475 L -12.052,16.597 c 0.247,-0.192 0.467,-0.412 0.659,-0.659 L 0,27.332 c 3.297,-3.454 5.356,-8.088 5.476,-13.2 l -16.122,0 c 0.02,-0.155 0.047,-0.307 0.047,-0.466 0,-0.159 -0.027,-0.311 -0.047,-0.466 l 16.122,0 C 5.356,8.088 3.297,3.454 0,0 m -14.324,37.214 c -12.984,0 -23.548,-10.564 -23.548,-23.548 0,-12.984 10.564,-23.548 23.548,-23.548 12.984,0 23.548,10.564 23.548,23.548 0,12.984 -10.564,23.548 -23.548,23.548"
             style="fill:#439163;fill-opacity:1;fill-rule:nonzero;stroke:none"
             id="path110"
             inkscape:connector-curvature="0" /></g><g
           id="g112"
           transform="translate(110.4473,29.2525)"><path
             d="m 0,0 c -2.539,0 -4.597,-2.058 -4.597,-4.597 0,-2.538 2.058,-4.596 4.597,-4.596 2.539,0 4.597,2.058 4.597,4.596 C 4.597,-2.058 2.539,0 0,0 m 0,-1.839 c 1.521,0 2.758,-1.237 2.758,-2.758 0,-1.52 -1.237,-2.758 -2.758,-2.758 -1.521,0 -2.758,1.238 -2.758,2.758 0,1.521 1.237,2.758 2.758,2.758"
             style="fill:#439163;fill-opacity:1;fill-rule:nonzero;stroke:none"
             id="path114"
             inkscape:connector-curvature="0" /></g><g
           id="g116"
           transform="translate(36.7937,26.5185)"><path
             d="m 0,0 35.217,0 21.423,29.296 -33.099,0 L 0,0 Z m 36.163,-3.725 -40.049,0 c -0.717,0 -1.37,0.411 -1.68,1.058 -0.309,0.646 -0.221,1.412 0.229,1.971 l 26.533,33.021 c 0.353,0.44 0.887,0.696 1.452,0.696 l 37.661,0 c 0.702,0 1.344,-0.394 1.661,-1.02 0.317,-0.625 0.256,-1.376 -0.157,-1.942 L 37.666,-2.962 c -0.35,-0.48 -0.909,-0.763 -1.503,-0.763"
             style="fill:#439163;fill-opacity:1;fill-rule:nonzero;stroke:none"
             id="path118"
             inkscape:connector-curvature="0" /></g><g
           id="g120"
           transform="translate(71.2332,23.9503)"><path
             d="m 0,0 -16.272,39.754 3.447,1.412 L 3.447,1.411 0,0 Z"
             style="fill:#439163;fill-opacity:1;fill-rule:nonzero;stroke:none"
             id="path122"
             inkscape:connector-curvature="0" /></g><g
           id="g124"
           transform="translate(72.9566,29.3123)"><path
             d="m 0,0 c -2.567,0 -4.656,-2.089 -4.656,-4.656 0,-2.568 2.089,-4.657 4.656,-4.657 2.567,0 4.656,2.089 4.656,4.657 C 4.656,-2.089 2.567,0 0,0 m 0,-11.175 c -3.594,0 -6.519,2.924 -6.519,6.519 0,3.594 2.925,6.519 6.519,6.519 3.594,0 6.519,-2.925 6.519,-6.519 0,-3.595 -2.925,-6.519 -6.519,-6.519"
             style="fill:#439163;fill-opacity:1;fill-rule:nonzero;stroke:none"
             id="path126"
             inkscape:connector-curvature="0" /></g><g
           id="g128"
           transform="translate(62.5707,66.7748)"><path
             d="m 0,0 -11.117,0 0,-4.729 11.347,2.895 C 1.292,-1.563 1.096,0 0,0"
             style="fill:#439163;fill-opacity:1;fill-rule:nonzero;stroke:none"
             id="path130"
             inkscape:connector-curvature="0" /></g><g
           id="g132"
           transform="translate(62.5708,64.9122)"><path
             d="M 0,0 0.009,0 0,0 Z m -9.255,0 0,-0.469 L -7.418,0 -9.255,0 Z m -1.863,-4.729 c -0.409,0 -0.812,0.135 -1.142,0.392 -0.455,0.353 -0.72,0.896 -0.72,1.471 l 0,4.729 c 0,1.028 0.834,1.862 1.862,1.862 L 0,3.725 C 1.428,3.725 2.594,2.696 2.772,1.279 2.949,-0.138 2.074,-1.423 0.69,-1.776 l -11.348,-2.895 c -0.152,-0.039 -0.306,-0.058 -0.46,-0.058"
             style="fill:#439163;fill-opacity:1;fill-rule:nonzero;stroke:none"
             id="path134"
             inkscape:connector-curvature="0" /></g><g
           id="g136"
           transform="translate(72.9568,24.6559)"><path
             d="M 0,0 0,-11.06"
             style="fill:#439163;fill-opacity:1;fill-rule:nonzero;stroke:none"
             id="path138"
             inkscape:connector-curvature="0" /></g><g
           id="g140"
           transform="translate(72.9566,12.665)"><path
             d="m 0,0 c -0.515,0 -0.931,0.417 -0.931,0.931 l 0,11.06 c 0,0.514 0.416,0.931 0.931,0.931 0.515,0 0.931,-0.417 0.931,-0.931 l 0,-11.06 C 0.931,0.417 0.515,0 0,0"
             style="fill:#439163;fill-opacity:1;fill-rule:nonzero;stroke:none"
             id="path142"
             inkscape:connector-curvature="0" /></g><g
           id="g144"
           transform="translate(72.9566,11.7338)"><path
             d="m 0,0 -5.376,0 c -1.028,0 -1.862,0.834 -1.862,1.863 0,1.028 0.834,1.862 1.862,1.862 L 0,3.725 C 1.029,3.725 1.863,2.891 1.863,1.863 1.863,0.834 1.029,0 0,0"
             style="fill:#439163;fill-opacity:1;fill-rule:nonzero;stroke:none"
             id="path146"
             inkscape:connector-curvature="0" /></g><g
           id="g148"
           transform="translate(110.4482,22.793)"><path
             d="m 0,0 c -0.738,0 -1.436,0.441 -1.729,1.167 l -17.359,43.072 c -0.23,0.573 -0.163,1.223 0.182,1.735 0.344,0.513 0.921,0.821 1.538,0.824 l 3.345,0.013 c 1.561,0.007 2.831,1.282 2.831,2.843 l 0,2.843 -6.168,0 c -1.029,0 -1.863,0.834 -1.863,1.863 0,1.028 0.834,1.862 1.863,1.862 l 8.03,0 c 1.029,0 1.863,-0.834 1.863,-1.862 l 0,-4.706 c 0,-3.606 -2.934,-6.553 -6.54,-6.568 L -14.606,43.084 1.727,2.559 C 2.111,1.605 1.65,0.52 0.696,0.135 0.467,0.044 0.232,0 0,0"
             style="fill:#439163;fill-opacity:1;fill-rule:nonzero;stroke:none"
             id="path150"
             inkscape:connector-curvature="0" /></g><g
           id="g152"
           transform="translate(112.2859,24.656)"><path
             d="m 0,0 c 0,-1.015 -0.823,-1.839 -1.839,-1.839 -1.015,0 -1.838,0.824 -1.838,1.839 0,1.015 0.823,1.839 1.838,1.839 C -0.823,1.839 0,1.015 0,0"
             style="fill:#439163;fill-opacity:1;fill-rule:nonzero;stroke:none"
             id="path154"
             inkscape:connector-curvature="0" /></g><g
           id="g156"
           transform="translate(46.853,10.99)"><path
             d="m 0,0 -11.393,11.393 c -0.192,-0.246 -0.412,-0.466 -0.659,-0.658 L -0.658,-0.658 c -3.455,-3.297 -8.088,-5.356 -13.2,-5.475 l 0,16.121 c -0.154,-0.02 -0.306,-0.047 -0.466,-0.047 -0.159,0 -0.311,0.027 -0.465,0.047 l 0,-16.121 c -5.113,0.119 -9.746,2.178 -13.2,5.475 l 11.393,11.394 c -0.246,0.191 -0.467,0.411 -0.658,0.658 L -28.648,0 c -3.296,3.455 -5.355,8.088 -5.475,13.2 l 16.121,0 c -0.019,0.155 -0.047,0.307 -0.047,0.466 0,0.159 0.028,0.311 0.047,0.466 l -16.121,0 c 0.12,5.112 2.178,9.745 5.475,13.199 l 11.394,-11.393 c 0.191,0.246 0.411,0.467 0.658,0.658 L -27.989,27.99 c 3.454,3.297 8.087,5.356 13.2,5.475 l 0,-16.121 c 0.154,0.02 0.306,0.047 0.465,0.047 0.16,0 0.312,-0.027 0.466,-0.047 l 0,16.121 c 5.113,-0.119 9.746,-2.178 13.2,-5.475 L -12.052,16.597 c 0.247,-0.192 0.467,-0.412 0.659,-0.659 L 0,27.332 c 3.297,-3.454 5.356,-8.088 5.476,-13.2 l -16.122,0 c 0.02,-0.155 0.047,-0.307 0.047,-0.466 0,-0.159 -0.027,-0.311 -0.047,-0.466 l 16.122,0 C 5.356,8.088 3.297,3.454 0,0 m -14.324,37.214 c -12.984,0 -23.548,-10.564 -23.548,-23.548 0,-12.984 10.564,-23.548 23.548,-23.548 12.984,0 23.548,10.564 23.548,23.548 0,12.984 -10.564,23.548 -23.548,23.548"
             style="fill:#439163;fill-opacity:1;fill-rule:nonzero;stroke:none"
             id="path158"
             inkscape:connector-curvature="0" /></g><g
           id="g160"
           transform="translate(32.529,29.3122)"><path
             d="m 0,0 c -2.572,0 -4.656,-2.085 -4.656,-4.656 0,-2.572 2.084,-4.657 4.656,-4.657 2.572,0 4.656,2.085 4.656,4.657 C 4.656,-2.085 2.572,0 0,0 m 0,-1.863 c 1.541,0 2.794,-1.253 2.794,-2.793 0,-1.541 -1.253,-2.794 -2.794,-2.794 -1.54,0 -2.794,1.253 -2.794,2.794 0,1.54 1.254,2.793 2.794,2.793"
             style="fill:#439163;fill-opacity:1;fill-rule:nonzero;stroke:none"
             id="path162"
             inkscape:connector-curvature="0" /></g><g
           id="g164"
           transform="translate(34.3915,24.6559)"><path
             d="m 0,0 c 0,-1.029 -0.834,-1.863 -1.863,-1.863 -1.028,0 -1.862,0.834 -1.862,1.863 0,1.029 0.834,1.863 1.862,1.863 C -0.834,1.863 0,1.029 0,0"
             style="fill:#439163;fill-opacity:1;fill-rule:nonzero;stroke:none"
             id="path166"
             inkscape:connector-curvature="0" /></g><g
           id="g168"
           transform="translate(13.8727,4.5617)"><path
             d="m 0,0 c 0.152,-0.904 0.305,-1.809 0.457,-2.713 0.117,-0.692 1.218,-0.648 1.1,0.049 C 1.405,-1.759 1.253,-0.855 1.1,0.05 0.984,0.741 -0.118,0.698 0,0"
             style="fill:#474847;fill-opacity:1;fill-rule:nonzero;stroke:none"
             id="path170"
             inkscape:connector-curvature="0" /></g><g
           id="g172"
           transform="translate(13.1423,2.6466)"><path
             d="M 0,0 C 1.019,0.031 2.023,0.184 3.008,0.45 3.693,0.635 3.359,1.685 2.677,1.5 1.781,1.259 0.878,1.129 -0.05,1.1 -0.76,1.079 -0.708,-0.022 0,0"
             style="fill:#474847;fill-opacity:1;fill-rule:nonzero;stroke:none"
             id="path174"
             inkscape:connector-curvature="0" /></g><g
           id="g176"
           transform="translate(9.0116,9.9736)"><path
             d="m 0,0 c -0.837,-0.978 -1.673,-1.956 -2.51,-2.934 -0.639,-0.747 0.399,-1.894 1.044,-1.139 0.837,0.977 1.673,1.955 2.51,2.933 C 1.683,-0.392 0.645,0.754 0,0"
             style="fill:#fdc657;fill-opacity:1;fill-rule:nonzero;stroke:none"
             id="path178"
             inkscape:connector-curvature="0" /></g><g
           id="g180"
           transform="translate(6.2926,9.0366)"><path
             d="M 0,0 C 0.951,-1.069 2.019,-2.013 3.191,-2.833 4.007,-3.405 4.837,-2.1 4.024,-1.531 2.957,-0.784 2.005,0.071 1.14,1.044 0.477,1.789 -0.661,0.743 0,0"
             style="fill:#fdc657;fill-opacity:1;fill-rule:nonzero;stroke:none"
             id="path182"
             inkscape:connector-curvature="0" /></g><g
           id="g184"
           transform="translate(62.0921,83.0604)"><path
             d="M 0,0 C -0.325,0.992 -0.65,1.983 -0.975,2.975 -1.223,3.733 -2.455,3.497 -2.204,2.732 -1.879,1.741 -1.554,0.749 -1.229,-0.243 -0.981,-1.001 0.251,-0.765 0,0"
             style="fill:#474847;fill-opacity:1;fill-rule:nonzero;stroke:none"
             id="path186"
             inkscape:connector-curvature="0" /></g><g
           id="g188"
           transform="translate(62.589,85.3389)"><path
             d="m 0,0 c -1.141,-0.208 -2.245,-0.55 -3.307,-1.016 -0.741,-0.325 -0.186,-1.449 0.55,-1.126 0.967,0.424 1.961,0.723 3,0.913 C 1.038,-1.084 0.793,0.145 0,0"
             style="fill:#474847;fill-opacity:1;fill-rule:nonzero;stroke:none"
             id="path190"
             inkscape:connector-curvature="0" /></g><g
           id="g192"
           transform="translate(76.019,68.6954)"><path
             d="M 0,0 C -0.538,1.642 -1.076,3.284 -1.614,4.927 -2.025,6.182 -4.065,5.792 -3.65,4.525 -3.112,2.883 -2.574,1.24 -2.036,-0.402 -1.625,-1.658 0.415,-1.267 0,0"
             style="fill:#fdc657;fill-opacity:1;fill-rule:nonzero;stroke:none"
             id="path194"
             inkscape:connector-curvature="0" /></g><g
           id="g196"
           transform="translate(76.8418,72.4686)"><path
             d="m 0,0 c -1.89,-0.345 -3.718,-0.911 -5.477,-1.683 -1.226,-0.538 -0.308,-2.4 0.912,-1.865 1.601,0.703 3.247,1.198 4.967,1.512 C 1.719,-1.796 1.313,0.239 0,0"
             style="fill:#fdc657;fill-opacity:1;fill-rule:nonzero;stroke:none"
             id="path198"
             inkscape:connector-curvature="0" /></g><g
           id="g200"
           transform="translate(110.5185,60.2907)"><path
             d="m 0,0 3.55,-1.651 c 0.092,-0.042 0.19,-0.064 0.291,-0.064 0.131,0 0.259,0.037 0.371,0.108 0.199,0.128 0.319,0.345 0.319,0.582 l 0,0.018 c 0,0.267 -0.157,0.513 -0.4,0.626 l -2.22,1.031 2.22,1.032 c 0.243,0.113 0.4,0.358 0.4,0.626 l 0,0.018 C 4.531,2.563 4.411,2.78 4.212,2.907 4.101,2.978 3.973,3.015 3.84,3.015 3.74,3.015 3.64,2.993 3.55,2.951 L 0,1.301 C -0.243,1.188 -0.399,0.942 -0.399,0.675 l 0,-0.049 C -0.399,0.359 -0.243,0.113 0,0"
             style="fill:#d3363e;fill-opacity:1;fill-rule:nonzero;stroke:none"
             id="path202"
             inkscape:connector-curvature="0" /></g><g
           id="g204"
           transform="translate(115.0807,56.9281)"><path
             d="m 0,0 c 0.129,-0.177 0.338,-0.283 0.557,-0.283 l 0.018,0 c 0.301,0 0.565,0.193 0.657,0.479 L 3.57,7.442 C 3.637,7.651 3.6,7.882 3.471,8.06 3.341,8.237 3.133,8.343 2.914,8.343 l -0.018,0 C 2.595,8.343 2.33,8.15 2.239,7.864 L -0.1,0.617 C -0.167,0.408 -0.129,0.177 0,0"
             style="fill:#d3363e;fill-opacity:1;fill-rule:nonzero;stroke:none"
             id="path206"
             inkscape:connector-curvature="0" /></g><g
           id="g208"
           transform="translate(118.5829,62.5984)"><path
             d="M 0,0 C 0,-0.267 0.157,-0.513 0.399,-0.626 L 2.62,-1.657 0.399,-2.689 C 0.157,-2.802 0,-3.047 0,-3.315 l 0,-0.018 c 0,-0.236 0.119,-0.454 0.319,-0.581 0.111,-0.071 0.239,-0.109 0.371,-0.109 0.101,0 0.199,0.022 0.291,0.065 l 3.55,1.65 c 0.242,0.114 0.399,0.359 0.399,0.626 l 0,0.049 c 0,0.268 -0.157,0.513 -0.399,0.626 L 0.981,0.644 C 0.891,0.685 0.791,0.707 0.691,0.707 0.558,0.707 0.43,0.67 0.319,0.6 0.119,0.472 0,0.255 0,0.018 L 0,0 Z"
             style="fill:#d3363e;fill-opacity:1;fill-rule:nonzero;stroke:none"
             id="path210"
             inkscape:connector-curvature="0" /></g><g
           id="g212"
           transform="translate(118.5293,41.1683)"><path
             d="M 0,0 0.513,0"
             style="fill:#f6ba64;fill-opacity:1;fill-rule:nonzero;stroke:none"
             id="path214"
             inkscape:connector-curvature="0" /></g><g
           id="g216"
           transform="translate(118.5293,38.0432)"><path
             d="M 0,0 C 0.114,0.011 0.228,0.022 0.342,0.033 1.18,0.113 1.914,0.324 2.529,0.938 3.065,1.475 3.469,2.355 3.434,3.125 3.398,3.925 3.136,4.754 2.529,5.312 1.892,5.896 1.201,6.135 0.342,6.217 0.228,6.228 0.114,6.239 0,6.25 -0.752,6.322 -1.695,5.85 -2.21,5.335 -2.752,4.793 -3.16,3.904 -3.125,3.125 -3.055,1.565 -1.743,-0.167 0,0"
             style="fill:#f6ba64;fill-opacity:1;fill-rule:nonzero;stroke:none"
             id="path218"
             inkscape:connector-curvature="0" /></g><g
           id="g220"
           transform="translate(2.8652,49.5754)"><path
             d="M 0,0 0.47,0"
             style="fill:#439163;fill-opacity:1;fill-rule:nonzero;stroke:none"
             id="path222"
             inkscape:connector-curvature="0" /></g><g
           id="g224"
           transform="translate(2.8652,46.712)"><path
             d="M 0,0 C 0.104,0.01 0.209,0.02 0.313,0.03 1.081,0.103 1.754,0.297 2.317,0.86 2.808,1.351 3.178,2.158 3.147,2.863 3.114,3.596 2.873,4.356 2.317,4.867 1.734,5.402 1.1,5.621 0.313,5.697 0.209,5.707 0.104,5.717 0,5.727 -0.689,5.793 -1.553,5.36 -2.025,4.888 -2.521,4.391 -2.895,3.577 -2.863,2.863 -2.799,1.434 -1.597,-0.153 0,0"
             style="fill:#439163;fill-opacity:1;fill-rule:nonzero;stroke:none"
             id="path226"
             inkscape:connector-curvature="0" /></g><g
           id="g228"
           transform="translate(8.3816,56.8494)"><path
             d="M 0,0 0.363,0"
             style="fill:#495aa6;fill-opacity:1;fill-rule:nonzero;stroke:none"
             id="path230"
             inkscape:connector-curvature="0" /></g><g
           id="g232"
           transform="translate(8.3816,54.636)"><path
             d="M 0,0 C 0.081,0.008 0.161,0.015 0.242,0.023 0.836,0.08 1.356,0.229 1.791,0.665 2.171,1.045 2.457,1.668 2.432,2.213 2.407,2.78 2.221,3.367 1.791,3.762 1.34,4.176 0.85,4.345 0.242,4.404 0.161,4.411 0.081,4.419 0,4.427 -0.533,4.478 -1.2,4.143 -1.565,3.779 -1.949,3.395 -2.238,2.765 -2.213,2.213 -2.164,1.109 -1.234,-0.118 0,0"
             style="fill:#495aa6;fill-opacity:1;fill-rule:nonzero;stroke:none"
             id="path234"
             inkscape:connector-curvature="0" /></g><g
           id="g236"
           transform="translate(17.0959,57.1784)"><path
             d="M 0,0 0.229,0"
             style="fill:#439163;fill-opacity:1;fill-rule:nonzero;stroke:none"
             id="path238"
             inkscape:connector-curvature="0" /></g><g
           id="g240"
           transform="translate(17.0959,55.7842)"><path
             d="M 0,0 C 0.051,0.005 0.102,0.01 0.152,0.015 0.526,0.05 0.854,0.145 1.128,0.419 1.367,0.658 1.547,1.051 1.532,1.394 1.516,1.751 1.399,2.121 1.128,2.37 0.844,2.63 0.536,2.737 0.152,2.774 0.102,2.779 0.051,2.783 0,2.788 -0.336,2.82 -0.756,2.61 -0.986,2.38 -1.228,2.138 -1.41,1.741 -1.394,1.394 -1.363,0.698 -0.777,-0.074 0,0"
             style="fill:#439163;fill-opacity:1;fill-rule:nonzero;stroke:none"
             id="path242"
             inkscape:connector-curvature="0" /></g><g
           id="g244"
           transform="translate(146.0291,48.9199)"><path
             d="M 0,0 C 0.171,0.171 0.342,0.342 0.513,0.513"
             style="fill:#495aa6;fill-opacity:1;fill-rule:nonzero;stroke:none"
             id="path246"
             inkscape:connector-curvature="0" /></g><g
           id="g248"
           transform="translate(146.2856,47.3974)"><path
             d="M 0,0 C 0.043,0.002 0.085,0.003 0.128,0.005 0.895,0.034 1.566,0.463 1.867,1.174 2.151,1.849 2.035,2.737 1.473,3.252 0.249,4.376 -1.709,3.587 -1.774,1.907 -1.776,1.864 -1.777,1.822 -1.779,1.779 -1.815,0.844 -0.935,-0.036 0,0"
             style="fill:#495aa6;fill-opacity:1;fill-rule:nonzero;stroke:none"
             id="path250"
             inkscape:connector-curvature="0" /></g><g
           id="g252"
           transform="translate(131.244,3.8161)"><path
             d="M 0,0 0.513,0"
             style="fill:#495aa6;fill-opacity:1;fill-rule:nonzero;stroke:none"
             id="path254"
             inkscape:connector-curvature="0" /></g><g
           id="g256"
           transform="translate(131.244,0.018)"><path
             d="M 0,0 C 1.109,-0.113 2.394,0.309 3.131,1.18 3.748,1.911 4.26,2.797 4.215,3.798 4.169,4.825 3.794,5.631 3.131,6.416 2.39,7.292 1.119,7.71 0,7.596 -1.033,7.491 -1.927,7.243 -2.686,6.484 -3.344,5.825 -3.84,4.744 -3.798,3.798 -3.754,2.816 -3.431,1.797 -2.686,1.112 -1.902,0.393 -1.056,0.108 0,0"
             style="fill:#495aa6;fill-opacity:1;fill-rule:nonzero;stroke:none"
             id="path258"
             inkscape:connector-curvature="0" /></g><g
           id="g260"
           transform="translate(146.629,5.3546)"><path
             d="M 0,0 -0.513,0"
             style="fill:#495aa6;fill-opacity:1;fill-rule:nonzero;stroke:none"
             id="path262"
             inkscape:connector-curvature="0" /></g><g
           id="g264"
           transform="translate(145.745,6.2386)"><path
             d="m 0,0 c -0.08,-0.091 -0.161,-0.181 -0.241,-0.272 -0.324,-0.366 -0.326,-0.856 0,-1.224 C -0.161,-1.587 -0.08,-1.677 0,-1.768 0.739,-2.602 2.134,-1.92 2.134,-0.884 2.134,0.152 0.736,0.831 0,0"
             style="fill:#495aa6;fill-opacity:1;fill-rule:nonzero;stroke:none"
             id="path266"
             inkscape:connector-curvature="0" /></g></g></g></g></svg>