<?xml version="1.0" encoding="UTF-8" standalone="no"?>
<!-- Created with Inkscape (http://www.inkscape.org/) -->

<svg
   xmlns:dc="http://purl.org/dc/elements/1.1/"
   xmlns:cc="http://creativecommons.org/ns#"
   xmlns:rdf="http://www.w3.org/1999/02/22-rdf-syntax-ns#"
   xmlns:svg="http://www.w3.org/2000/svg"
   xmlns="http://www.w3.org/2000/svg"
   xmlns:sodipodi="http://sodipodi.sourceforge.net/DTD/sodipodi-0.dtd"
   xmlns:inkscape="http://www.inkscape.org/namespaces/inkscape"
   id="svg2"
   version="1.1"
   inkscape:version="0.91 r13725"
   xml:space="preserve"
   width="161"
   height="121"
   viewBox="0 0 161 121"
   sodipodi:docname="icon-how-use-4.svg"><metadata
     id="metadata8"><rdf:RDF><cc:Work
         rdf:about=""><dc:format>image/svg+xml</dc:format><dc:type
           rdf:resource="http://purl.org/dc/dcmitype/StillImage" /><dc:title></dc:title></cc:Work></rdf:RDF></metadata><defs
     id="defs6"><clipPath
       clipPathUnits="userSpaceOnUse"
       id="clipPath16"><path
         d="m 0,51.473 74.589,0 L 74.589,0 0,0 0,51.473 Z"
         id="path18"
         inkscape:connector-curvature="0" /></clipPath><radialGradient
       fx="0"
       fy="0"
       cx="0"
       cy="0"
       r="1"
       gradientUnits="userSpaceOnUse"
       gradientTransform="matrix(15.273976,0,0,-15.273976,16.343492,29.113026)"
       spreadMethod="pad"
       id="radialGradient222"><stop
         style="stop-opacity:1;stop-color:#ffffff"
         offset="0"
         id="stop224" /><stop
         style="stop-opacity:1;stop-color:#ffffff"
         offset="0.696742"
         id="stop226" /><stop
         style="stop-opacity:1;stop-color:#ffffff"
         offset="0.78001988"
         id="stop228" /><stop
         style="stop-opacity:1;stop-color:#f0eded"
         offset="1"
         id="stop230" /></radialGradient><clipPath
       clipPathUnits="userSpaceOnUse"
       id="clipPath238"><path
         d="m 0,51.473 74.589,0 L 74.589,0 0,0 0,51.473 Z"
         id="path240"
         inkscape:connector-curvature="0" /></clipPath><clipPath
       clipPathUnits="userSpaceOnUse"
       id="clipPath250"><path
         d="m 3.91507,32.1534 24.42423,0 0,-20.1887 -24.42423,0 0,20.1887 z"
         id="path252"
         inkscape:connector-curvature="0" /></clipPath><radialGradient
       fx="0"
       fy="0"
       cx="0"
       cy="0"
       r="1"
       gradientUnits="userSpaceOnUse"
       gradientTransform="matrix(6.0286112,0,0,-6.0286112,16.127192,35.833443)"
       spreadMethod="pad"
       id="radialGradient274"><stop
         style="stop-opacity:1;stop-color:#ffffff"
         offset="0"
         id="stop276" /><stop
         style="stop-opacity:1;stop-color:#ffffff"
         offset="0.696742"
         id="stop278" /><stop
         style="stop-opacity:1;stop-color:#ffffff"
         offset="0.78001988"
         id="stop280" /><stop
         style="stop-opacity:1;stop-color:#f0eded"
         offset="1"
         id="stop282" /></radialGradient><clipPath
       clipPathUnits="userSpaceOnUse"
       id="clipPath294"><path
         d="m 0,51.473 74.589,0 L 74.589,0 0,0 0,51.473 Z"
         id="path296"
         inkscape:connector-curvature="0" /></clipPath></defs><sodipodi:namedview
     pagecolor="#ffffff"
     bordercolor="#666666"
     borderopacity="1"
     objecttolerance="10"
     gridtolerance="10"
     guidetolerance="10"
     inkscape:pageopacity="0"
     inkscape:pageshadow="2"
     inkscape:window-width="1920"
     inkscape:window-height="1017"
     id="namedview4"
     showgrid="false"
     inkscape:zoom="3.6679565"
     inkscape:cx="46.618126"
     inkscape:cy="49.07346"
     inkscape:window-x="-8"
     inkscape:window-y="-8"
     inkscape:window-maximized="1"
     inkscape:current-layer="g10"
     fit-margin-top="0"
     fit-margin-left="0"
     fit-margin-right="0"
     fit-margin-bottom="0" /><g
     id="g10"
     inkscape:groupmode="layer"
     inkscape:label="icon-how-use-4"
     transform="matrix(1.25,0,0,-1.25,0,121.00018)"><g
       id="g4432"
       transform="matrix(1.7268078,0,0,1.7268078,0,4.0723157)"><g
         id="g12"><g
           clip-path="url(#clipPath16)"
           id="g14"><g
             transform="translate(62.485,2.8184)"
             id="g20"><path
               inkscape:connector-curvature="0"
               id="path22"
               style="fill:#495aa6;fill-opacity:1;fill-rule:nonzero;stroke:none"
               d="M 0,0 C -0.128,0.008 -0.255,0.016 -0.383,0.024" /></g><g
             transform="translate(61.8657,3.5203)"
             id="g24"><path
               inkscape:connector-curvature="0"
               id="path26"
               style="fill:#495aa6;fill-opacity:1;fill-rule:nonzero;stroke:none"
               d="M 0,0 C -0.064,-0.064 -0.128,-0.128 -0.193,-0.192 -0.452,-0.451 -0.476,-0.816 -0.25,-1.107 -0.194,-1.178 -0.138,-1.25 -0.083,-1.321 0.431,-1.979 1.505,-1.534 1.554,-0.76 1.602,0.014 0.589,0.587 0,0" /></g><g
             transform="translate(58.1952,5.2587)"
             id="g28"><path
               inkscape:connector-curvature="0"
               id="path30"
               style="fill:#474847;fill-opacity:1;fill-rule:nonzero;stroke:none"
               d="M 0,0 C 0.08,-0.005 0.16,-0.01 0.241,-0.015" /></g><g
             transform="translate(58.1035,3.7922)"
             id="g32"><path
               inkscape:connector-curvature="0"
               id="path34"
               style="fill:#474847;fill-opacity:1;fill-rule:nonzero;stroke:none"
               d="m 0,0 c 0.054,0.002 0.108,0.004 0.161,0.005 0.396,0.013 0.747,0.091 1.053,0.361 0.268,0.236 0.483,0.637 0.489,1 C 1.71,1.742 1.611,2.139 1.342,2.418 1.061,2.711 0.744,2.844 0.343,2.908 0.29,2.916 0.237,2.925 0.183,2.933 -0.167,2.989 -0.624,2.795 -0.88,2.568 -1.151,2.33 -1.368,1.925 -1.375,1.558 -1.388,0.824 -0.823,-0.027 0,0" /></g><g
             transform="translate(62.068,33.3844)"
             id="g36"><path
               inkscape:connector-curvature="0"
               id="path38"
               style="fill:#474847;fill-opacity:1;fill-rule:nonzero;stroke:none"
               d="M 0,0 C -0.571,0.556 -1.142,1.112 -1.712,1.667 -2.149,2.092 -2.898,1.497 -2.458,1.068 -1.887,0.512 -1.316,-0.044 -0.746,-0.599 -0.309,-1.024 0.44,-0.429 0,0" /></g><g
             transform="translate(61.5976,35.1015)"
             id="g40"><path
               inkscape:connector-curvature="0"
               id="path42"
               style="fill:#474847;fill-opacity:1;fill-rule:nonzero;stroke:none"
               d="m 0,0 c -0.698,-0.545 -1.324,-1.167 -1.877,-1.858 -0.386,-0.482 0.387,-1.046 0.771,-0.567 0.503,0.629 1.07,1.183 1.705,1.679 C 1.086,-0.366 0.485,0.379 0,0" /></g><g
             transform="translate(66.8732,28.7417)"
             id="g44"><path
               inkscape:connector-curvature="0"
               id="path46"
               style="fill:#fdc657;fill-opacity:1;fill-rule:nonzero;stroke:none"
               d="M 0,0 C -0.352,1.076 -0.705,2.152 -1.058,3.228 -1.327,4.051 -2.663,3.795 -2.391,2.965 -2.039,1.889 -1.686,0.813 -1.334,-0.263 -1.064,-1.086 0.272,-0.83 0,0" /></g><g
             transform="translate(67.4123,31.2139)"
             id="g48"><path
               inkscape:connector-curvature="0"
               id="path50"
               style="fill:#fdc657;fill-opacity:1;fill-rule:nonzero;stroke:none"
               d="m 0,0 c -1.238,-0.226 -2.436,-0.597 -3.589,-1.103 -0.803,-0.352 -0.202,-1.572 0.598,-1.221 1.049,0.46 2.127,0.785 3.254,0.99 C 1.126,-1.177 0.861,0.157 0,0" /></g><g
             transform="translate(18.0822,24.6095)"
             id="g52"><path
               inkscape:connector-curvature="0"
               id="path54"
               style="fill:#474847;fill-opacity:1;fill-rule:nonzero;stroke:none"
               d="M 0,0 0.248,0" /></g><g
             transform="translate(18.0822,23.0975)"
             id="g56"><path
               inkscape:connector-curvature="0"
               id="path58"
               style="fill:#474847;fill-opacity:1;fill-rule:nonzero;stroke:none"
               d="M 0,0 C 0.055,0.005 0.11,0.011 0.165,0.016 0.571,0.055 0.926,0.157 1.223,0.454 1.483,0.714 1.678,1.139 1.662,1.512 1.644,1.899 1.517,2.3 1.223,2.57 0.915,2.853 0.581,2.968 0.165,3.008 0.11,3.013 0.055,3.019 0,3.024 -0.364,3.059 -0.82,2.83 -1.069,2.581 -1.331,2.319 -1.529,1.889 -1.512,1.512 -1.478,0.757 -0.843,-0.081 0,0" /></g><g
             transform="translate(21.432,26.8122)"
             id="g60"><path
               inkscape:connector-curvature="0"
               id="path62"
               style="fill:#495aa6;fill-opacity:1;fill-rule:nonzero;stroke:none"
               d="M 0,0 0.132,0" /></g><g
             transform="translate(21.432,26.0067)"
             id="g64"><path
               inkscape:connector-curvature="0"
               id="path66"
               style="fill:#495aa6;fill-opacity:1;fill-rule:nonzero;stroke:none"
               d="M 0,0 C 0.029,0.003 0.059,0.006 0.088,0.008 0.304,0.029 0.493,0.084 0.652,0.242 0.79,0.38 0.894,0.607 0.885,0.805 0.876,1.012 0.808,1.225 0.652,1.369 0.488,1.52 0.309,1.581 0.088,1.603 0.059,1.605 0.029,1.608 0,1.611 -0.194,1.629 -0.437,1.508 -0.57,1.375 -0.709,1.235 -0.814,1.006 -0.805,0.805 -0.787,0.403 -0.449,-0.043 0,0" /></g><g
             transform="translate(3.2777,15.8301)"
             id="g68"><path
               inkscape:connector-curvature="0"
               id="path70"
               style="fill:#fdc657;fill-opacity:1;fill-rule:nonzero;stroke:none"
               d="M 0,0 0.156,0" /></g><g
             transform="translate(3.2777,14.8824)"
             id="g72"><path
               inkscape:connector-curvature="0"
               id="path74"
               style="fill:#fdc657;fill-opacity:1;fill-rule:nonzero;stroke:none"
               d="M 0,0 C 0.035,0.003 0.069,0.007 0.104,0.01 0.358,0.034 0.58,0.098 0.767,0.285 0.929,0.447 1.052,0.714 1.041,0.948 1.031,1.19 0.951,1.442 0.767,1.611 0.574,1.788 0.364,1.861 0.104,1.885 0.069,1.889 0.035,1.892 0,1.895 -0.228,1.917 -0.514,1.774 -0.67,1.618 -0.834,1.453 -0.958,1.184 -0.948,0.948 -0.927,0.475 -0.528,-0.051 0,0" /></g><g
             transform="translate(5.3638,9.7185)"
             id="g76"><path
               inkscape:connector-curvature="0"
               id="path78"
               style="fill:#439163;fill-opacity:1;fill-rule:nonzero;stroke:none"
               d="M 0,0 0.121,0" /></g><g
             transform="translate(5.3638,8.9795)"
             id="g80"><path
               inkscape:connector-curvature="0"
               id="path82"
               style="fill:#439163;fill-opacity:1;fill-rule:nonzero;stroke:none"
               d="M 0,0 C 0.027,0.003 0.054,0.005 0.081,0.008 0.279,0.027 0.453,0.077 0.598,0.222 0.725,0.349 0.82,0.557 0.812,0.739 0.804,0.928 0.742,1.124 0.598,1.256 0.447,1.394 0.284,1.451 0.081,1.47 0.054,1.473 0.027,1.475 0,1.478 -0.178,1.495 -0.401,1.383 -0.523,1.262 -0.651,1.133 -0.747,0.923 -0.739,0.739 -0.723,0.37 -0.412,-0.039 0,0" /></g><g
             transform="translate(1.4799,12.0627)"
             id="g84"><path
               inkscape:connector-curvature="0"
               id="path86"
               style="fill:#439163;fill-opacity:1;fill-rule:nonzero;stroke:none"
               d="M 0,0 0.243,0" /></g><g
             transform="translate(1.4799,10.5838)"
             id="g88"><path
               inkscape:connector-curvature="0"
               id="path90"
               style="fill:#439163;fill-opacity:1;fill-rule:nonzero;stroke:none"
               d="M 0,0 C 0.054,0.005 0.108,0.01 0.162,0.015 0.559,0.053 0.906,0.153 1.197,0.444 1.45,0.698 1.642,1.114 1.625,1.479 1.608,1.857 1.484,2.25 1.197,2.514 0.895,2.79 0.568,2.904 0.162,2.942 0.108,2.948 0.054,2.953 0,2.958 -0.356,2.992 -0.802,2.768 -1.046,2.525 -1.302,2.268 -1.495,1.847 -1.479,1.479 -1.446,0.741 -0.825,-0.079 0,0" /></g><g
             transform="translate(56.2725,16.0627)"
             id="g92"><path
               inkscape:connector-curvature="0"
               id="path94"
               style="fill:#439163;fill-opacity:1;fill-rule:nonzero;stroke:none"
               d="m 0,0 c 0,-4.4 3.579,-7.979 7.979,-7.979 4.399,0 7.978,3.579 7.978,7.979 0,4.4 -3.579,7.979 -7.978,7.979 C 3.579,7.979 0,4.4 0,0 m -2.359,0 c 0,5.7 4.637,10.338 10.338,10.338 5.7,0 10.337,-4.638 10.337,-10.338 0,-5.7 -4.637,-10.338 -10.337,-10.338 C 2.278,-10.338 -2.359,-5.7 -2.359,0" /></g><g
             transform="translate(72.6125,23.6006)"
             id="g96"><path
               inkscape:connector-curvature="0"
               id="path98"
               style="fill:#439163;fill-opacity:1;fill-rule:nonzero;stroke:none"
               d="m 0,0 c 0.201,0 0.401,0.076 0.555,0.229 0.308,0.307 0.309,0.804 0.002,1.112 -2.378,2.39 -5.546,3.706 -8.918,3.706 -2.838,0 -5.517,-0.922 -7.748,-2.667 -0.342,-0.268 -0.403,-0.762 -0.135,-1.104 0.267,-0.341 0.761,-0.404 1.104,-0.135 1.952,1.526 4.295,2.333 6.779,2.333 2.95,0 5.722,-1.151 7.804,-3.243 C -0.404,0.077 -0.202,0 0,0" /></g><g
             transform="translate(23.4612,16.0627)"
             id="g100"><path
               inkscape:connector-curvature="0"
               id="path102"
               style="fill:#439163;fill-opacity:1;fill-rule:nonzero;stroke:none"
               d="m 0,0 c 0,-4.4 3.579,-7.979 7.979,-7.979 4.399,0 7.978,3.579 7.978,7.979 0,4.4 -3.579,7.979 -7.978,7.979 C 3.579,7.979 0,4.4 0,0 m -2.359,0 c 0,5.7 4.637,10.338 10.338,10.338 5.7,0 10.337,-4.638 10.337,-10.338 0,-5.7 -4.637,-10.338 -10.337,-10.338 C 2.278,-10.338 -2.359,-5.7 -2.359,0" /></g><g
             transform="translate(47.0794,18.8286)"
             id="g104"><path
               inkscape:connector-curvature="0"
               id="path106"
               style="fill:#439163;fill-opacity:1;fill-rule:nonzero;stroke:none"
               d="m 0,0 c -0.14,0.009 -0.271,0.008 -0.4,-0.001 l -0.055,0.785 c 0.163,0.013 0.333,0.014 0.51,0.001 L 0.386,0.761 0.329,-0.024 0,0 Z M 0.722,-0.051 0.778,0.734 1.563,0.677 1.507,-0.108 0.722,-0.051 Z M 1.899,-0.135 1.955,0.65 2.74,0.594 2.684,-0.191 1.899,-0.135 Z m -3.63,0.58 c 0.268,0.13 0.55,0.224 0.838,0.281 l 0.152,-0.772 C -0.964,-0.09 -1.182,-0.163 -1.39,-0.263 L -1.731,0.445 Z M 3.076,-0.22 3.132,0.565 3.917,0.51 3.86,-0.275 3.076,-0.22 Z M 4.253,-0.303 4.308,0.482 5.093,0.426 5.038,-0.359 4.253,-0.303 Z M 5.43,-0.387 5.485,0.398 6.27,0.342 6.215,-0.443 5.43,-0.387 Z M 6.607,-0.471 6.663,0.314 7.447,0.258 7.391,-0.527 6.607,-0.471 Z M 7.783,-0.555 7.84,0.23 8.624,0.174 8.568,-0.611 7.783,-0.555 Z M 8.961,-0.639 9.016,0.146 9.801,0.091 9.746,-0.694 8.961,-0.639 Z m 1.177,-0.084 0.054,0.785 0.785,-0.055 -0.054,-0.785 -0.785,0.055 z m 1.176,-0.083 0.057,0.784 0.784,-0.055 -0.057,-0.785 -0.784,0.056 z m -14.106,0.469 c 0.2,0.216 0.428,0.407 0.675,0.566 l 0.428,-0.66 C -1.882,-0.556 -2.06,-0.704 -2.216,-0.872 l -0.576,0.535 z m 15.283,-0.553 0.056,0.785 0.785,-0.056 -0.057,-0.785 -0.784,0.056 z m 1.177,-0.084 0.055,0.785 0.785,-0.056 -0.055,-0.785 -0.785,0.056 z m 1.177,-0.084 0.055,0.785 0.785,-0.056 -0.055,-0.785 -0.785,0.056 z m 1.177,-0.084 0.056,0.785 0.784,-0.056 -0.056,-0.784 -0.784,0.055 z m 1.214,-0.086 -0.035,0.002 0.071,0.784 c 0.304,-0.008 0.599,-0.074 0.877,-0.197 l -0.318,-0.719 c -0.183,0.08 -0.378,0.124 -0.595,0.13 M -3.495,-1.452 c 0.108,0.275 0.251,0.535 0.423,0.775 l 0.638,-0.462 c -0.135,-0.185 -0.245,-0.389 -0.33,-0.602 l -0.731,0.289 z m 21.598,-0.06 0.457,0.64 c 0.259,-0.185 0.474,-0.417 0.639,-0.689 l -0.673,-0.408 c -0.109,0.18 -0.252,0.334 -0.423,0.457 M -3.74,-2.75 c 0,0.299 0.037,0.593 0.11,0.877 l 0.761,-0.196 C -2.925,-2.288 -2.954,-2.517 -2.954,-2.75 l 0.003,-0.108 -0.787,-0.028 -0.002,0.136 z m 22.482,-0.119 0.003,0.108 c 0,0.175 -0.03,0.347 -0.087,0.51 L 19.4,-1.99 c 0.086,-0.246 0.131,-0.505 0.132,-0.77 0,-0.054 -0.002,-0.107 -0.005,-0.161 l -0.785,0.052 z M -3.693,-3.327 -2.916,-3.2 c 0.037,-0.226 0.102,-0.447 0.194,-0.657 l -0.72,-0.316 c -0.118,0.27 -0.203,0.555 -0.251,0.846 m 22.095,-0.4 c 0.133,0.164 0.229,0.35 0.286,0.552 l 0.757,-0.213 C 19.36,-3.694 19.213,-3.975 19.012,-4.223 l -0.61,0.496 z m -0.77,-0.507 c 0.2,0.056 0.385,0.153 0.549,0.287 l 0.498,-0.61 c -0.249,-0.202 -0.53,-0.349 -0.835,-0.434 l -0.212,0.757 z m -1.093,-0.107 0.781,0.053 0.061,-0.785 C 17.342,-5.075 17.303,-5.075 17.29,-5.077 l -0.696,-0.049 -0.055,0.785 z m -1.178,-0.082 0.785,0.055 0.055,-0.785 -0.785,-0.055 -0.055,0.785 z m -18.601,-0.143 0.675,0.404 c 0.117,-0.197 0.26,-0.379 0.422,-0.54 L -2.696,-5.26 c -0.21,0.208 -0.393,0.441 -0.544,0.694 m 17.425,0.06 0.785,0.055 0.055,-0.785 -0.785,-0.055 -0.055,0.785 z m -1.177,-0.082 0.784,0.055 0.055,-0.785 -0.784,-0.055 -0.055,0.785 z M 11.831,-4.67 12.616,-4.615 12.67,-5.4 11.886,-5.455 11.831,-4.67 Z m -1.177,-0.083 0.784,0.055 0.055,-0.785 -0.784,-0.055 -0.055,0.785 z M 9.477,-4.835 10.261,-4.78 10.316,-5.565 9.531,-5.62 9.477,-4.835 Z M 8.3,-4.917 9.085,-4.863 9.14,-5.647 8.355,-5.702 8.3,-4.917 Z M 7.123,-5 7.907,-4.945 7.962,-5.73 7.178,-5.785 7.123,-5 Z M 5.946,-5.082 6.731,-5.027 6.786,-5.812 6.001,-5.867 5.946,-5.082 Z M 4.768,-5.165 5.553,-5.11 5.609,-5.895 4.825,-5.95 4.768,-5.165 Z m -7.133,-0.387 0.481,0.623 c 0.183,-0.141 0.382,-0.258 0.593,-0.35 l -0.315,-0.722 c -0.269,0.118 -0.524,0.269 -0.759,0.449 m 5.957,0.304 0.785,0.055 0.054,-0.785 -0.784,-0.055 -0.055,0.785 z M 2.415,-5.33 3.2,-5.275 3.255,-6.06 2.47,-6.115 2.415,-5.33 Z M 1.238,-5.412 2.022,-5.357 2.077,-6.142 1.293,-6.197 1.238,-5.412 Z M 0.061,-5.495 0.846,-5.44 0.901,-6.225 0.116,-6.28 0.061,-5.495 Z m -1.251,-0.656 0.223,0.755 c 0.217,-0.065 0.445,-0.101 0.676,-0.108 l -0.027,-0.787 c -0.297,0.011 -0.59,0.057 -0.872,0.14" /></g><g
             transform="translate(64.251,14.4896)"
             id="g108"><path
               inkscape:connector-curvature="0"
               id="path110"
               style="fill:#439163;fill-opacity:1;fill-rule:nonzero;stroke:none"
               d="M 0,0 C 0.867,0 1.574,0.706 1.574,1.573 1.574,2.44 0.867,3.146 0,3.146 -0.867,3.146 -1.573,2.44 -1.573,1.573 -1.573,0.706 -0.867,0 0,0" /></g><g
             transform="translate(64.2512,18.0291)"
             id="g112"><path
               inkscape:connector-curvature="0"
               id="path114"
               style="fill:#439163;fill-opacity:1;fill-rule:nonzero;stroke:none"
               d="m 0,0 c -1.086,0 -1.966,-0.88 -1.966,-1.966 0,-1.087 0.88,-1.967 1.966,-1.967 1.086,0 1.966,0.88 1.966,1.967 C 1.966,-0.88 1.086,0 0,0 m 0,-0.787 c 0.651,0 1.18,-0.529 1.18,-1.179 0,-0.651 -0.529,-1.18 -1.18,-1.18 -0.651,0 -1.18,0.529 -1.18,1.18 0,0.65 0.529,1.179 1.18,1.179" /></g><g
             transform="translate(31.4396,14.4896)"
             id="g116"><path
               inkscape:connector-curvature="0"
               id="path118"
               style="fill:#439163;fill-opacity:1;fill-rule:nonzero;stroke:none"
               d="M 0,0 C 0.867,0 1.574,0.706 1.574,1.573 1.574,2.44 0.867,3.146 0,3.146 -0.867,3.146 -1.573,2.44 -1.573,1.573 -1.573,0.706 -0.867,0 0,0" /></g><g
             transform="translate(31.4398,18.0291)"
             id="g120"><path
               inkscape:connector-curvature="0"
               id="path122"
               style="fill:#439163;fill-opacity:1;fill-rule:nonzero;stroke:none"
               d="m 0,0 c -1.086,0 -1.966,-0.88 -1.966,-1.966 0,-1.087 0.88,-1.967 1.966,-1.967 1.086,0 1.966,0.88 1.966,1.967 C 1.966,-0.88 1.086,0 0,0 m 0,-0.787 c 0.651,0 1.18,-0.529 1.18,-1.179 0,-0.651 -0.529,-1.18 -1.18,-1.18 -0.651,0 -1.18,0.529 -1.18,1.18 0,0.65 0.529,1.179 1.18,1.179" /></g><g
             transform="translate(52.603,29.2214)"
             id="g124"><path
               inkscape:connector-curvature="0"
               id="path126"
               style="fill:#439163;fill-opacity:1;fill-rule:nonzero;stroke:none"
               d="m 0,0 -13.978,0 9.046,-12.372 14.874,0 L 0,0 Z M -5.966,-13.623 -16.163,0.322 c -0.174,0.24 -0.2,0.556 -0.066,0.821 0.134,0.264 0.405,0.43 0.701,0.43 l 15.905,0 c 0.238,0 0.464,-0.108 0.613,-0.294 l 11.206,-13.945 c 0.19,-0.236 0.227,-0.559 0.096,-0.832 -0.13,-0.273 -0.406,-0.447 -0.709,-0.447 l -16.914,0 c -0.25,0 -0.486,0.119 -0.635,0.322" /></g><g
             transform="translate(48.0001,15.7645)"
             id="g128"><path
               inkscape:connector-curvature="0"
               id="path130"
               style="fill:#439163;fill-opacity:1;fill-rule:nonzero;stroke:none"
               d="M 0,0 6.872,16.789 5.416,17.385 -1.456,0.596 0,0 Z" /></g><g
             transform="translate(38.7707,37.0531)"
             id="g132"><path
               inkscape:connector-curvature="0"
               id="path134"
               style="fill:#439163;fill-opacity:1;fill-rule:nonzero;stroke:none"
               d="m 0,0 4.038,0 c 0.651,0 1.179,0.528 1.179,1.18 0,0.651 -0.528,1.179 -1.179,1.179 L 0,2.359 C -0.651,2.359 -1.18,1.831 -1.18,1.18 -1.18,0.528 -0.651,0 0,0" /></g><g
             transform="translate(44.1261,16.0627)"
             id="g136"><path
               inkscape:connector-curvature="0"
               id="path138"
               style="fill:#439163;fill-opacity:1;fill-rule:nonzero;stroke:none"
               d="m 0,0 c 0,-1.738 1.409,-3.146 3.146,-3.146 1.738,0 3.147,1.408 3.147,3.146 0,1.738 -1.409,3.146 -3.147,3.146 C 1.409,3.146 0,1.738 0,0" /></g><g
             transform="translate(44.519,16.0627)"
             id="g140"><path
               inkscape:connector-curvature="0"
               id="path142"
               style="fill:#439163;fill-opacity:1;fill-rule:nonzero;stroke:none"
               d="m 0,0 c 0,-1.518 1.235,-2.753 2.753,-2.753 1.518,0 2.754,1.235 2.754,2.753 0,1.518 -1.236,2.753 -2.754,2.753 C 1.235,2.753 0,1.518 0,0 m -0.786,0 c 0,1.952 1.587,3.54 3.539,3.54 1.952,0 3.54,-1.588 3.54,-3.54 0,-1.952 -1.588,-3.54 -3.54,-3.54 -1.952,0 -3.539,1.588 -3.539,3.54" /></g><g
             transform="translate(46.0925,16.0627)"
             id="g144"><path
               inkscape:connector-curvature="0"
               id="path146"
               style="fill:#439163;fill-opacity:1;fill-rule:nonzero;stroke:none"
               d="m 0,0 c 0,-0.652 0.528,-1.18 1.18,-1.18 0.651,0 1.18,0.528 1.18,1.18 0,0.652 -0.529,1.18 -1.18,1.18 C 0.528,1.18 0,0.652 0,0" /></g><g
             transform="translate(46.4859,16.0627)"
             id="g148"><path
               inkscape:connector-curvature="0"
               id="path150"
               style="fill:#439163;fill-opacity:1;fill-rule:nonzero;stroke:none"
               d="M 0,0 C 0,-0.433 0.353,-0.786 0.786,-0.786 1.22,-0.786 1.573,-0.433 1.573,0 1.573,0.433 1.22,0.786 0.786,0.786 0.353,0.786 0,0.433 0,0 m -0.786,0 c 0,0.867 0.705,1.573 1.572,1.573 0.868,0 1.573,-0.706 1.573,-1.573 0,-0.867 -0.705,-1.573 -1.573,-1.573 -0.867,0 -1.572,0.706 -1.572,1.573" /></g><g
             transform="translate(51.6509,33.7351)"
             id="g152"><path
               inkscape:connector-curvature="0"
               id="path154"
               style="fill:#439163;fill-opacity:1;fill-rule:nonzero;stroke:none"
               d="m 0,0 c 1.543,-0.419 3.177,-0.381 4.703,0.115 0,-0.666 0,-1.331 0,-1.997 C 3.145,-1.98 1.475,-1.602 -0.096,-0.748 -0.534,-0.499 -0.454,0.132 0,0" /></g><g
             transform="translate(51.6437,33.7352)"
             id="g156"><path
               inkscape:connector-curvature="0"
               id="path158"
               style="fill:#439163;fill-opacity:1;fill-rule:nonzero;stroke:none"
               d="M 0,0 0.007,0 0,0 Z M 3.107,-1.026 C 3.38,-1.068 3.652,-1.094 3.923,-1.105 l 0,0.203 C 3.652,-0.956 3.381,-0.997 3.107,-1.026 m -3.583,-0.406 c -0.577,0.327 -0.84,1.028 -0.601,1.597 0.213,0.506 0.744,0.748 1.295,0.592 C 1.619,0.379 3.087,0.415 4.466,0.863 4.707,0.94 4.969,0.899 5.172,0.752 5.376,0.603 5.496,0.367 5.496,0.115 l 0,-1.997 C 5.496,-2.297 5.173,-2.641 4.759,-2.667 4.58,-2.678 4.4,-2.684 4.219,-2.684 c -1.57,0 -3.179,0.426 -4.695,1.252" /></g><g
             transform="translate(33.5468,31.1826)"
             id="g160"><path
               inkscape:connector-curvature="0"
               id="path162"
               style="fill:#439163;fill-opacity:1;fill-rule:nonzero;stroke:none"
               d="m 0,0 0.787,0 0,-2.36 -0.787,0 c -0.434,0 -0.787,0.352 -0.787,0.787 l 0,0.786 C -0.787,-0.352 -0.434,0 0,0" /></g><g
             transform="translate(33.5468,28.0366)"
             id="g164"><path
               inkscape:connector-curvature="0"
               id="path166"
               style="fill:#439163;fill-opacity:1;fill-rule:nonzero;stroke:none"
               d="m 0,0 0.786,0 c 0.435,0 0.787,0.352 0.787,0.786 l 0,2.36 c 0,0.434 -0.352,0.786 -0.787,0.786 L 0,3.932 c -0.867,0 -1.573,-0.705 -1.573,-1.573 l 0,-0.786 C -1.573,0.706 -0.867,0 0,0" /></g><g
             transform="translate(54.9394,28.8978)"
             id="g168"><path
               inkscape:connector-curvature="0"
               id="path170"
               style="fill:#439163;fill-opacity:1;fill-rule:nonzero;stroke:none"
               d="m 0,0 -0.618,-0.487 1.459,-1.854 0.619,0.487 c 0.341,0.269 0.4,0.763 0.131,1.104 L 1.105,-0.132 C 0.836,0.21 0.341,0.269 0,0" /></g><g
             transform="translate(55.426,28.2799)"
             id="g172"><path
               inkscape:connector-curvature="0"
               id="path174"
               style="fill:#439163;fill-opacity:1;fill-rule:nonzero;stroke:none"
               d="M 0,0 0.487,-0.619 0.001,0.001 0,0 Z m 0.262,-2.504 c -0.208,0.025 -0.396,0.131 -0.525,0.295 l -1.46,1.854 c -0.268,0.341 -0.21,0.836 0.132,1.104 l 0.618,0.487 C -0.292,1.774 0.7,1.654 1.236,0.973 L 1.723,0.355 C 1.983,0.024 2.099,-0.388 2.048,-0.805 1.999,-1.223 1.789,-1.595 1.459,-1.854 L 0.841,-2.341 C 0.702,-2.451 0.53,-2.509 0.355,-2.509 c -0.032,0 -0.062,10e-4 -0.093,0.005" /></g><g
             transform="translate(47.2724,16.0627)"
             id="g176"><path
               inkscape:connector-curvature="0"
               id="path178"
               style="fill:#439163;fill-opacity:1;fill-rule:nonzero;stroke:none"
               d="M 0,0 0,-5.064" /></g><g
             transform="translate(47.2723,10.6059)"
             id="g180"><path
               inkscape:connector-curvature="0"
               id="path182"
               style="fill:#439163;fill-opacity:1;fill-rule:nonzero;stroke:none"
               d="m 0,0 c 0.217,0 0.393,0.176 0.393,0.393 l 0,5.064 C 0.393,5.674 0.217,5.85 0,5.85 -0.217,5.85 -0.393,5.674 -0.393,5.457 l 0,-5.064 C -0.393,0.176 -0.217,0 0,0" /></g><g
             transform="translate(47.2723,10.2127)"
             id="g184"><path
               inkscape:connector-curvature="0"
               id="path186"
               style="fill:#439163;fill-opacity:1;fill-rule:nonzero;stroke:none"
               d="m 0,0 2.27,0 c 0.435,0 0.787,0.352 0.787,0.786 0,0.435 -0.352,0.787 -0.787,0.787 L 0,1.573 C -0.435,1.573 -0.786,1.221 -0.786,0.786 -0.786,0.352 -0.435,0 0,0" /></g><g
             transform="translate(63.4646,16.0627)"
             id="g188"><path
               inkscape:connector-curvature="0"
               id="path190"
               style="fill:#439163;fill-opacity:1;fill-rule:nonzero;stroke:none"
               d="m 0,0 c 0,-0.434 0.352,-0.787 0.787,-0.787 0.434,0 0.786,0.353 0.786,0.787 0,0.434 -0.352,0.787 -0.786,0.787 C 0.352,0.787 0,0.434 0,0" /></g><g
             transform="translate(31.4398,15.2763)"
             id="g192"><path
               inkscape:connector-curvature="0"
               id="path194"
               style="fill:#439163;fill-opacity:1;fill-rule:nonzero;stroke:none"
               d="m 0,0 c 0.311,0 0.606,0.185 0.729,0.493 l 7.331,18.19 c 0.098,0.242 0.069,0.516 -0.076,0.732 -0.146,0.217 -0.389,0.347 -0.65,0.348 L 5.921,19.769 C 5.262,19.772 4.726,20.311 4.726,20.97 l 0,1.2 2.605,0 c 0.435,0 0.786,0.352 0.786,0.786 0,0.435 -0.351,0.787 -0.786,0.787 l -3.391,0 c -0.435,0 -0.787,-0.352 -0.787,-0.787 l 0,-1.986 c 0,-1.524 1.239,-2.768 2.762,-2.774 L 6.168,18.195 -0.729,1.08 C -0.892,0.677 -0.697,0.22 -0.294,0.057 -0.197,0.018 -0.098,0 0,0" /></g><g
             transform="translate(30.6532,16.0627)"
             id="g196"><path
               inkscape:connector-curvature="0"
               id="path198"
               style="fill:#439163;fill-opacity:1;fill-rule:nonzero;stroke:none"
               d="m 0,0 c 0,-0.434 0.352,-0.787 0.787,-0.787 0.434,0 0.786,0.353 0.786,0.787 0,0.434 -0.352,0.787 -0.786,0.787 C 0.352,0.787 0,0.434 0,0" /></g><g
             transform="translate(34.331,29.2214)"
             id="g200"><path
               inkscape:connector-curvature="0"
               id="path202"
               style="fill:#439163;fill-opacity:1;fill-rule:nonzero;stroke:none"
               d="m 0,0 2.744,0 c 0.435,0 0.787,0.352 0.787,0.786 0,0.435 -0.352,0.787 -0.787,0.787 L 0,1.573 C -0.435,1.573 -0.786,1.221 -0.786,0.786 -0.786,0.352 -0.435,0 0,0" /></g><path
             inkscape:connector-curvature="0"
             id="path204"
             style="fill:#474847;fill-opacity:1;fill-rule:nonzero;stroke:none"
             d="m 4.411,11.101 -0.496,0 0,1.958 0.496,0 0,-1.958 z" /><g
             transform="translate(29.2006,44.3924)"
             id="g206"><path
               inkscape:connector-curvature="0"
               id="path208"
               style="fill:#474847;fill-opacity:1;fill-rule:nonzero;stroke:none"
               d="m 0,0 0,-30.906 c 0,-0.749 -0.345,-1.419 -0.885,-1.857 -0.409,-0.331 -0.932,-0.529 -1.5,-0.529 l -22.9,0 0,35.68 22.9,0 c 0.466,0 0.898,-0.133 1.266,-0.362 L -1.116,2.024 C -0.896,1.885 -0.701,1.71 -0.537,1.509 -0.201,1.099 0,0.574 0,0" /></g></g></g><g
         id="g210"><g
           id="g212"><g
             id="g218"><g
               id="g220"><path
                 inkscape:connector-curvature="0"
                 id="path232"
                 style="fill:url(#radialGradient222);stroke:none"
                 d="m 3.916,46.781 0,-35.336 22.467,0 c 0.571,0 1.09,0.201 1.501,0.531 l 0,0 c 0.542,0.439 0.887,1.105 0.887,1.858 l 0,0 0,30.906 c 0,0.574 -0.203,1.1 -0.54,1.509 l 0,0 c -0.047,0.06 -0.096,0.114 -0.146,0.167 l 0,0 -0.003,0.003 c -0.368,0.229 -0.8,0.362 -1.266,0.362 l 0,0 -22.9,0 z" /></g></g></g></g><g
         id="g234"><g
           clip-path="url(#clipPath238)"
           id="g236"><g
             transform="translate(25.9532,11.9647)"
             id="g242"><path
               inkscape:connector-curvature="0"
               id="path244"
               style="fill:#495aa6;fill-opacity:1;fill-rule:nonzero;stroke:none"
               d="m 0,0 -22.038,0 0,35.68 22.038,0 c 0.745,0 1.41,-0.341 1.848,-0.876 0.336,-0.412 0.538,-0.937 0.538,-1.51 l 0,-30.908 C 2.386,1.637 2.041,0.968 1.501,0.531 1.091,0.199 0.569,0 0,0" /></g><g
             id="g246"><g
               id="g248" /><g
               id="g254"><g
                 style="opacity:0.39999402"
                 id="g256"
                 clip-path="url(#clipPath250)"><g
                   id="g258"
                   transform="translate(3.9151,17.0327)"><path
                     inkscape:connector-curvature="0"
                     id="path260"
                     style="fill:#474847;fill-opacity:1;fill-rule:nonzero;stroke:none"
                     d="m 0,0 0,-5.068 22.038,0 c 0.569,0 1.091,0.199 1.501,0.531 0.54,0.437 0.885,1.106 0.885,1.855 l 0,17.803 C 17.925,7.869 9.205,3.376 0,0" /></g></g></g></g></g></g><g
         id="g262"><g
           id="g264"><g
             id="g270"><g
               id="g272"><path
                 inkscape:connector-curvature="0"
                 id="path284"
                 style="fill:url(#radialGradient274);stroke:none"
                 d="m 10.099,35.833 c 0,-3.324 2.704,-6.029 6.028,-6.029 l 0,0 c 3.325,0 6.029,2.705 6.029,6.029 l 0,0 c 0,3.324 -2.704,6.029 -6.029,6.029 l 0,0 c -3.324,0 -6.028,-2.705 -6.028,-6.029 m 6.286,5.487 c 0.636,-0.14 1.214,-0.789 1.637,-1.746 l 0,0 -1.637,0 0,1.746 z m -0.515,0 0,-1.746 -1.637,0 c 0.423,0.957 1,1.606 1.637,1.746 m 1.766,-0.187 c 0.984,-0.281 1.854,-0.828 2.531,-1.559 l 0,0 -1.577,0 c -0.259,0.638 -0.582,1.17 -0.954,1.559 m -3.018,0 c -0.372,-0.389 -0.695,-0.921 -0.953,-1.559 l 0,0 -1.578,0 c 0.678,0.731 1.547,1.278 2.531,1.559 m 4.157,-2.073 1.814,0 c 0.594,-0.818 0.967,-1.804 1.034,-2.873 l 0,0 -2.382,0 c -0.031,1.06 -0.196,2.038 -0.466,2.873 m -2.39,0 1.838,0 c 0.287,-0.824 0.47,-1.813 0.503,-2.873 l 0,0 -2.341,0 0,2.873 z m -2.354,0 1.839,0 0,-2.873 -2.342,0 c 0.033,1.06 0.216,2.049 0.503,2.873 m -2.366,0 1.813,0 c -0.269,-0.835 -0.434,-1.813 -0.465,-2.873 l 0,0 -2.382,0 c 0.068,1.069 0.44,2.055 1.034,2.873 m 7.58,-3.388 2.388,0 C 21.603,34.614 21.276,33.628 20.727,32.8 l 0,0 -1.893,0 c 0.251,0.843 0.397,1.82 0.411,2.872 m -2.86,0 2.346,0 C 18.715,34.622 18.553,33.634 18.288,32.8 l 0,0 -1.903,0 0,2.872 z m -2.862,0 2.347,0 0,-2.872 -1.904,0 c -0.265,0.834 -0.427,1.822 -0.443,2.872 m -2.902,0 2.389,0 c 0.013,-1.052 0.16,-2.029 0.41,-2.872 l 0,0 -1.893,0 c -0.549,0.828 -0.875,1.814 -0.906,2.872 m 8.043,-3.387 1.678,0 c -0.699,-0.828 -1.636,-1.446 -2.706,-1.751 l 0,0 c 0.409,0.428 0.759,1.027 1.028,1.751 m -2.279,0 1.718,0 c -0.429,-1.061 -1.04,-1.789 -1.718,-1.938 l 0,0 0,1.938 z m -2.233,0 1.718,0 0,-1.938 c -0.679,0.149 -1.29,0.877 -1.718,1.938 m -2.24,0 1.678,0 c 0.269,-0.724 0.619,-1.323 1.028,-1.751 l 0,0 c -1.069,0.305 -2.007,0.923 -2.706,1.751" /></g></g></g></g><text
         id="text286"
         style="font-variant:normal;font-weight:normal;font-stretch:normal;font-size:3.39159989px;font-family:Montserrat;-inkscape-font-specification:Montserrat-Regular;writing-mode:lr-tb;fill:#ffffff;fill-opacity:1;fill-rule:nonzero;stroke:none"
         transform="matrix(1,0,0,-1,7.3457,24.2842)"><tspan
           id="tspan288"
           sodipodi:role="line"
           y="0"
           x="0 2.1336555 4.6163068 6.7258821 8.8354568 11.118004 13.8652 16.317327">PASSPORT</tspan></text>
<g
         id="g290"><g
           clip-path="url(#clipPath294)"
           id="g292"><g
             transform="translate(23.1018,1.5934)"
             id="g298"><path
               inkscape:connector-curvature="0"
               id="path300"
               style="fill:#d3363e;fill-opacity:1;fill-rule:nonzero;stroke:none"
               d="m 0,0 c -0.592,-0.175 -1.216,-0.315 -1.887,-0.454 -0.32,-0.07 -0.511,-0.369 -0.447,-0.68 0.065,-0.312 0.369,-0.512 0.68,-0.447 1.482,0.308 3.327,0.69 4.963,1.931 C 3.481,0.481 3.565,0.698 3.527,0.91 3.489,1.124 3.334,1.298 3.126,1.359 1.541,1.835 0.305,3.872 0.292,3.892 0.149,4.129 -0.137,4.228 -0.39,4.14 -0.426,4.128 -0.462,4.111 -0.497,4.09 -0.769,3.927 -0.858,3.574 -0.695,3.302 -0.654,3.233 0.052,2.075 1.158,1.174 -0.393,1.161 -5.408,1.408 -6.289,5.087 -6.367,5.411 -6.692,5.611 -7.016,5.533 -7.34,5.455 -7.539,5.13 -7.462,4.806 -6.547,0.985 -2.395,0.157 0,0" /></g><g
             transform="translate(34.6376,50.0752)"
             id="g302"><path
               inkscape:connector-curvature="0"
               id="path304"
               style="fill:#d3363e;fill-opacity:1;fill-rule:nonzero;stroke:none"
               d="M 0,0 C 0.607,0.111 1.243,0.183 1.925,0.249 2.25,0.285 2.472,0.562 2.443,0.877 2.411,1.194 2.13,1.426 1.814,1.395 0.307,1.247 -1.568,1.066 -3.327,0.007 c -0.185,-0.112 -0.292,-0.318 -0.278,-0.534 0.016,-0.217 0.151,-0.406 0.351,-0.489 1.525,-0.643 2.536,-2.801 2.547,-2.822 0.116,-0.252 0.39,-0.38 0.651,-0.32 0.037,0.008 0.074,0.022 0.112,0.038 0.287,0.133 0.414,0.475 0.281,0.762 -0.033,0.074 -0.611,1.301 -1.614,2.315 1.544,-0.154 6.503,-0.936 6.984,-4.689 0.043,-0.331 0.345,-0.564 0.675,-0.521 0.331,0.042 0.564,0.344 0.522,0.675 C 6.404,-1.681 2.364,-0.413 0,0" /></g></g></g></g></g></svg>