<?xml version="1.0" encoding="UTF-8" standalone="no"?>
<!-- Created with Inkscape (http://www.inkscape.org/) -->

<svg
   xmlns:dc="http://purl.org/dc/elements/1.1/"
   xmlns:cc="http://creativecommons.org/ns#"
   xmlns:rdf="http://www.w3.org/1999/02/22-rdf-syntax-ns#"
   xmlns:svg="http://www.w3.org/2000/svg"
   xmlns="http://www.w3.org/2000/svg"
   xmlns:sodipodi="http://sodipodi.sourceforge.net/DTD/sodipodi-0.dtd"
   xmlns:inkscape="http://www.inkscape.org/namespaces/inkscape"
   id="svg2"
   version="1.1"
   inkscape:version="0.91 r13725"
   xml:space="preserve"
   width="129.63573"
   height="121"
   viewBox="0 0 129.63573 121"
   sodipodi:docname="icon-how-use-1.svg"><metadata
     id="metadata8"><rdf:RDF><cc:Work
         rdf:about=""><dc:format>image/svg+xml</dc:format><dc:type
           rdf:resource="http://purl.org/dc/dcmitype/StillImage" /><dc:title></dc:title></cc:Work></rdf:RDF></metadata><defs
     id="defs6"><clipPath
       clipPathUnits="userSpaceOnUse"
       id="clipPath16"><path
         d="m 0,75.97 81.392,0 L 81.392,0 0,0 0,75.97 Z"
         id="path18"
         inkscape:connector-curvature="0" /></clipPath></defs><sodipodi:namedview
     pagecolor="#ffffff"
     bordercolor="#666666"
     borderopacity="1"
     objecttolerance="10"
     gridtolerance="10"
     guidetolerance="10"
     inkscape:pageopacity="0"
     inkscape:pageshadow="2"
     inkscape:window-width="1920"
     inkscape:window-height="1017"
     id="namedview4"
     showgrid="false"
     inkscape:zoom="2.4851785"
     inkscape:cx="50.869569"
     inkscape:cy="47.481328"
     inkscape:window-x="-8"
     inkscape:window-y="-8"
     inkscape:window-maximized="1"
     inkscape:current-layer="g10"
     fit-margin-top="0"
     fit-margin-left="0"
     fit-margin-right="0"
     fit-margin-bottom="0" /><g
     id="g10"
     inkscape:groupmode="layer"
     inkscape:label="icon-how-use-1"
     transform="matrix(1.25,0,0,-1.25,-2.4703385e-4,121.00017)"><g
       id="g12"
       transform="matrix(1.2741895,0,0,1.2741895,-5.4187273e-5,-3.8048967e-5)"><g
         id="g14"
         clip-path="url(#clipPath16)"><g
           id="g20"
           transform="translate(70.9798,45.5025)"><path
             d="m 0,0 c -0.404,3.925 -3.281,6.774 -6.841,6.774 l -16.464,0 c -3.775,0 -6.845,-3.07 -6.844,-6.815 -0.047,-1.07 -1.133,-26.319 0.004,-35.395 0.499,-3.98 3.312,-6.759 6.84,-6.759 l 16.464,0 c 3.774,0 6.844,3.071 6.844,6.812 C 0.014,-35.142 1.148,-11.148 0,0"
             style="fill:#439163;fill-opacity:1;fill-rule:nonzero;stroke:none"
             id="path22"
             inkscape:connector-curvature="0" /></g><g
           id="g24"
           transform="translate(49.3212,47.584)"><path
             d="m 0,0 c -2.393,0 -4.34,-1.898 -4.34,-4.232 -0.01,-0.239 -0.921,-20.976 -0.005,-28.13 0.266,-2.08 1.74,-4.319 4.345,-4.319 l 13.458,0 c 2.393,0 4.34,1.898 4.34,4.232 0.01,0.226 0.932,19.322 0.004,28.145 C 17.535,-1.77 15.749,0 13.458,0 L 0,0 Z"
             style="fill:#ffffff;fill-opacity:1;fill-rule:nonzero;stroke:none"
             id="path26"
             inkscape:connector-curvature="0" /></g><g
           id="g28"
           transform="translate(52.4839,37.0292)"><path
             d="M 0,0 C 1.079,1.289 2.159,2.579 3.238,3.868 3.845,4.592 2.805,5.643 2.193,4.913 1.114,3.623 0.035,2.334 -1.045,1.045 -1.651,0.32 -0.611,-0.73 0,0"
             style="fill:#474847;fill-opacity:1;fill-rule:nonzero;stroke:none"
             id="path30"
             inkscape:connector-curvature="0" /></g><g
           id="g32"
           transform="translate(48.886,23.7151)"><path
             d="m 0,0 c 4.106,4.581 8.584,8.766 13.433,12.552 0.63,0.491 -0.255,1.365 -0.879,0.879 C 7.705,9.645 3.227,5.46 -0.879,0.879 -1.411,0.285 -0.535,-0.597 0,0"
             style="fill:#474847;fill-opacity:1;fill-rule:nonzero;stroke:none"
             id="path34"
             inkscape:connector-curvature="0" /></g><g
           id="g36"
           transform="translate(56.2687,18.3829)"><path
             d="M 0,0 C 0.992,0.906 1.985,1.813 2.977,2.719 3.542,3.235 2.702,4.071 2.139,3.557 1.147,2.651 0.154,1.745 -0.838,0.838 -1.403,0.323 -0.563,-0.514 0,0"
             style="fill:#474847;fill-opacity:1;fill-rule:nonzero;stroke:none"
             id="path38"
             inkscape:connector-curvature="0" /></g><g
           id="g40"
           transform="translate(13.3671,41.3809)"><path
             d="M 0,0 C -0.325,0.992 -0.65,1.983 -0.975,2.975 -1.223,3.733 -2.455,3.497 -2.204,2.732 -1.879,1.741 -1.554,0.749 -1.229,-0.243 -0.981,-1.001 0.251,-0.765 0,0"
             style="fill:#474847;fill-opacity:1;fill-rule:nonzero;stroke:none"
             id="path42"
             inkscape:connector-curvature="0" /></g><g
           id="g44"
           transform="translate(13.864,43.6593)"><path
             d="m 0,0 c -1.141,-0.208 -2.245,-0.55 -3.307,-1.016 -0.741,-0.325 -0.186,-1.449 0.55,-1.126 0.967,0.424 1.961,0.723 3,0.913 C 1.038,-1.084 0.793,0.145 0,0"
             style="fill:#474847;fill-opacity:1;fill-rule:nonzero;stroke:none"
             id="path46"
             inkscape:connector-curvature="0" /></g><g
           id="g48"
           transform="translate(78.5811,34.5342)"><path
             d="M 0,0 C -0.141,1.034 -0.283,2.068 -0.424,3.102 -0.532,3.892 -1.786,3.881 -1.677,3.084 -1.536,2.05 -1.394,1.016 -1.253,-0.018 -1.145,-0.808 0.109,-0.798 0,0"
             style="fill:#474847;fill-opacity:1;fill-rule:nonzero;stroke:none"
             id="path50"
             inkscape:connector-curvature="0" /></g><g
           id="g52"
           transform="translate(79.4793,36.6862)"><path
             d="m 0,0 c -1.16,0 -2.307,-0.138 -3.436,-0.406 -0.787,-0.186 -0.444,-1.391 0.339,-1.206 1.028,0.243 2.059,0.359 3.115,0.359 C 0.826,-1.253 0.806,0 0,0"
             style="fill:#474847;fill-opacity:1;fill-rule:nonzero;stroke:none"
             id="path54"
             inkscape:connector-curvature="0" /></g><g
           id="g56"
           transform="translate(27.294,27.0159)"><path
             d="M 0,0 C -0.538,1.642 -1.076,3.284 -1.614,4.927 -2.025,6.182 -4.065,5.792 -3.65,4.525 -3.112,2.883 -2.574,1.24 -2.036,-0.402 -1.625,-1.658 0.415,-1.267 0,0"
             style="fill:#fdc657;fill-opacity:1;fill-rule:nonzero;stroke:none"
             id="path58"
             inkscape:connector-curvature="0" /></g><g
           id="g60"
           transform="translate(28.1168,30.789)"><path
             d="m 0,0 c -1.89,-0.345 -3.718,-0.911 -5.477,-1.683 -1.226,-0.538 -0.308,-2.4 0.912,-1.865 1.601,0.703 3.247,1.198 4.967,1.512 C 1.719,-1.796 1.313,0.239 0,0"
             style="fill:#fdc657;fill-opacity:1;fill-rule:nonzero;stroke:none"
             id="path62"
             inkscape:connector-curvature="0" /></g><g
           id="g64"
           transform="translate(66.7764,13.3941)"><path
             d="m 0,0 2.74,-1.274 c 0.07,-0.033 0.146,-0.049 0.224,-0.049 0.101,0 0.2,0.028 0.286,0.083 0.154,0.099 0.246,0.266 0.246,0.449 l 0,0.014 c 0,0.206 -0.121,0.396 -0.308,0.483 L 1.475,0.502 3.188,1.298 c 0.187,0.087 0.308,0.277 0.308,0.483 l 0,0.014 C 3.496,1.978 3.404,2.145 3.25,2.244 3.165,2.298 3.066,2.327 2.963,2.327 2.886,2.327 2.809,2.31 2.739,2.278 L 0,1.004 C -0.187,0.917 -0.308,0.727 -0.308,0.521 l 0,-0.038 C -0.308,0.277 -0.187,0.087 0,0"
             style="fill:#d3363e;fill-opacity:1;fill-rule:nonzero;stroke:none"
             id="path66"
             inkscape:connector-curvature="0" /></g><g
           id="g68"
           transform="translate(70.2972,10.7992)"><path
             d="m 0,0 c 0.1,-0.137 0.261,-0.218 0.43,-0.218 l 0.014,0 c 0.232,0 0.436,0.148 0.507,0.369 l 1.804,5.592 c 0.052,0.162 0.023,0.34 -0.077,0.477 -0.1,0.137 -0.26,0.218 -0.43,0.218 l -0.013,0 C 2.002,6.438 1.798,6.29 1.728,6.068 L -0.077,0.476 C -0.129,0.315 -0.1,0.137 0,0"
             style="fill:#d3363e;fill-opacity:1;fill-rule:nonzero;stroke:none"
             id="path70"
             inkscape:connector-curvature="0" /></g><g
           id="g72"
           transform="translate(72.9999,15.1751)"><path
             d="M 0,0 C 0,-0.206 0.121,-0.396 0.308,-0.483 L 2.022,-1.279 0.308,-2.075 C 0.121,-2.162 0,-2.352 0,-2.558 l 0,-0.014 c 0,-0.183 0.092,-0.35 0.246,-0.449 0.086,-0.054 0.185,-0.083 0.287,-0.083 0.077,0 0.153,0.016 0.224,0.049 l 2.74,1.274 c 0.187,0.087 0.307,0.277 0.307,0.483 l 0,0.038 c 0,0.206 -0.12,0.396 -0.308,0.483 L 0.757,0.497 C 0.688,0.529 0.61,0.546 0.533,0.546 0.431,0.546 0.331,0.517 0.246,0.463 0.092,0.365 0,0.197 0,0.014 L 0,0 Z"
             style="fill:#d3363e;fill-opacity:1;fill-rule:nonzero;stroke:none"
             id="path74"
             inkscape:connector-curvature="0" /></g><g
           id="g76"
           transform="translate(55.9655,7.2301)"><path
             d="M 0,0 0.289,0"
             style="fill:#f6ba64;fill-opacity:1;fill-rule:nonzero;stroke:none"
             id="path78"
             inkscape:connector-curvature="0" /></g><g
           id="g80"
           transform="translate(55.9655,5.4691)"><path
             d="M 0,0 C 0.064,0.006 0.128,0.012 0.193,0.018 0.665,0.064 1.079,0.183 1.425,0.529 1.727,0.831 1.955,1.327 1.935,1.761 1.915,2.212 1.767,2.679 1.425,2.993 1.066,3.322 0.677,3.457 0.193,3.504 0.128,3.51 0.064,3.516 0,3.522 -0.424,3.563 -0.955,3.296 -1.245,3.006 -1.551,2.701 -1.781,2.2 -1.761,1.761 -1.722,0.882 -0.982,-0.094 0,0"
             style="fill:#f6ba64;fill-opacity:1;fill-rule:nonzero;stroke:none"
             id="path82"
             inkscape:connector-curvature="0" /></g><g
           id="g84"
           transform="translate(22.8144,47.3736)"><path
             d="M 0,0 C 0.103,0 0.203,-0.03 0.29,-0.086 0.348,-0.125 5.528,-3.501 9.002,-4.568 L 4.394,1.895 C 4.246,2.103 4.267,2.387 4.446,2.571 7.43,5.641 8.949,10.025 8.51,14.297 8.072,18.553 5.699,22.545 2.163,24.975 c -4.416,3.034 -10.621,3.417 -15.441,0.952 -4.815,-2.461 -8.133,-7.577 -8.454,-13.035 -0.176,-3.009 0.563,-5.813 2.082,-7.893 1.676,-2.297 4.473,-3.956 7.875,-4.67 2.969,-0.623 8.259,-0.636 11.729,-0.331 C -0.031,-0.001 -0.015,0 0,0 m 10.234,-5.914 c -0.021,0 -0.042,10e-4 -0.063,0.003 -3.274,0.39 -9.245,4.157 -10.307,4.84 -3.546,-0.295 -8.839,-0.268 -11.856,0.365 -3.659,0.768 -6.682,2.573 -8.512,5.081 -1.663,2.279 -2.473,5.326 -2.283,8.579 0.342,5.825 3.885,11.287 9.028,13.915 5.155,2.636 11.795,2.225 16.521,-1.023 3.789,-2.603 6.33,-6.88 6.8,-11.44 C 10.018,9.973 8.506,5.428 5.507,2.155 l 5.157,-7.234 c 0.122,-0.17 0.131,-0.396 0.025,-0.576 -0.096,-0.162 -0.27,-0.259 -0.455,-0.259"
             style="fill:#439163;fill-opacity:1;fill-rule:nonzero;stroke:none"
             id="path86"
             inkscape:connector-curvature="0" /></g><g
           id="g88"
           transform="translate(24.4636,61.1247)"><path
             d="M 0,0 0.352,0"
             style="fill:#474847;fill-opacity:1;fill-rule:nonzero;stroke:none"
             id="path90"
             inkscape:connector-curvature="0" /></g><g
           id="g92"
           transform="translate(24.4636,58.9826)"><path
             d="M 0,0 C 0.078,0.008 0.156,0.015 0.234,0.022 0.809,0.077 1.312,0.222 1.733,0.643 2.101,1.011 2.378,1.614 2.354,2.142 2.329,2.69 2.149,3.259 1.733,3.641 1.297,4.041 0.823,4.205 0.234,4.262 0.156,4.269 0.078,4.277 0,4.284 -0.516,4.333 -1.162,4.01 -1.515,3.657 -1.886,3.285 -2.166,2.676 -2.142,2.142 -2.094,1.073 -1.195,-0.114 0,0"
             style="fill:#474847;fill-opacity:1;fill-rule:nonzero;stroke:none"
             id="path94"
             inkscape:connector-curvature="0" /></g><g
           id="g96"
           transform="translate(16.9863,61.1247)"><path
             d="M 0,0 0.352,0"
             style="fill:#474847;fill-opacity:1;fill-rule:nonzero;stroke:none"
             id="path98"
             inkscape:connector-curvature="0" /></g><g
           id="g100"
           transform="translate(16.9863,58.9826)"><path
             d="M 0,0 C 0.078,0.008 0.156,0.015 0.234,0.022 0.809,0.077 1.312,0.222 1.733,0.643 2.101,1.011 2.378,1.614 2.354,2.142 2.329,2.69 2.149,3.259 1.733,3.641 1.297,4.041 0.823,4.205 0.234,4.262 0.156,4.269 0.078,4.277 0,4.284 -0.516,4.333 -1.162,4.01 -1.515,3.657 -1.886,3.285 -2.166,2.676 -2.142,2.142 -2.094,1.073 -1.195,-0.114 0,0"
             style="fill:#474847;fill-opacity:1;fill-rule:nonzero;stroke:none"
             id="path102"
             inkscape:connector-curvature="0" /></g><g
           id="g104"
           transform="translate(9.509,61.1247)"><path
             d="M 0,0 0.352,0"
             style="fill:#474847;fill-opacity:1;fill-rule:nonzero;stroke:none"
             id="path106"
             inkscape:connector-curvature="0" /></g><g
           id="g108"
           transform="translate(9.509,58.9826)"><path
             d="M 0,0 C 0.078,0.008 0.156,0.015 0.234,0.022 0.809,0.077 1.312,0.222 1.733,0.643 2.101,1.011 2.378,1.614 2.354,2.142 2.329,2.69 2.149,3.259 1.733,3.641 1.297,4.041 0.823,4.205 0.234,4.262 0.156,4.269 0.078,4.277 0,4.284 -0.516,4.333 -1.162,4.01 -1.515,3.657 -1.886,3.285 -2.166,2.676 -2.142,2.142 -2.094,1.073 -1.195,-0.114 0,0"
             style="fill:#474847;fill-opacity:1;fill-rule:nonzero;stroke:none"
             id="path110"
             inkscape:connector-curvature="0" /></g><g
           id="g112"
           transform="translate(43.035,58.8621)"><path
             d="M 0,0 0.229,0"
             style="fill:#439163;fill-opacity:1;fill-rule:nonzero;stroke:none"
             id="path114"
             inkscape:connector-curvature="0" /></g><g
           id="g116"
           transform="translate(43.035,57.468)"><path
             d="M 0,0 C 0.051,0.005 0.102,0.01 0.152,0.015 0.526,0.05 0.854,0.145 1.128,0.419 1.367,0.658 1.547,1.051 1.532,1.394 1.516,1.751 1.399,2.121 1.128,2.37 0.844,2.63 0.536,2.737 0.152,2.774 0.102,2.779 0.051,2.783 0,2.788 -0.336,2.82 -0.756,2.61 -0.986,2.38 -1.228,2.138 -1.41,1.741 -1.394,1.394 -1.363,0.698 -0.777,-0.074 0,0"
             style="fill:#439163;fill-opacity:1;fill-rule:nonzero;stroke:none"
             id="path118"
             inkscape:connector-curvature="0" /></g><g
           id="g120"
           transform="translate(76.9417,43.7561)"><path
             d="M 0,0 C 0.093,0.008 0.187,0.017 0.28,0.025"
             style="fill:#495aa6;fill-opacity:1;fill-rule:nonzero;stroke:none"
             id="path122"
             inkscape:connector-curvature="0" /></g><g
           id="g124"
           transform="translate(77.1282,41.6832)"><path
             d="M 0,0 C 0.611,-0.007 1.291,0.286 1.651,0.798 1.952,1.227 2.187,1.735 2.114,2.28 2.038,2.838 1.794,3.259 1.394,3.655 0.946,4.097 0.232,4.263 -0.373,4.146 -0.931,4.038 -1.407,3.858 -1.784,3.407 -2.111,3.015 -2.329,2.401 -2.259,1.886 -2.187,1.352 -1.961,0.812 -1.52,0.475 -1.057,0.121 -0.581,0.007 0,0"
             style="fill:#495aa6;fill-opacity:1;fill-rule:nonzero;stroke:none"
             id="path126"
             inkscape:connector-curvature="0" /></g><g
           id="g128"
           transform="translate(80.1456,48.608)"><path
             d="M 0,0 C -0.165,-0.046 -0.329,-0.091 -0.494,-0.137"
             style="fill:#495aa6;fill-opacity:1;fill-rule:nonzero;stroke:none"
             id="path130"
             inkscape:connector-curvature="0" /></g><g
           id="g132"
           transform="translate(79.0577,49.2237)"><path
             d="M 0,0 C -0.053,-0.109 -0.106,-0.218 -0.159,-0.326 -0.374,-0.766 -0.245,-1.238 0.167,-1.506 0.269,-1.572 0.371,-1.638 0.472,-1.704 1.407,-2.31 2.569,-1.28 2.293,-0.282 2.016,0.716 0.488,0.998 0,0"
             style="fill:#495aa6;fill-opacity:1;fill-rule:nonzero;stroke:none"
             id="path134"
             inkscape:connector-curvature="0" /></g><g
           id="g136"
           transform="translate(38.7568,6.6147)"><path
             d="M 0,0 C 0.29,-0.007 0.518,-0.247 0.512,-0.537 0.419,-4.414 6.236,-5.564 6.295,-5.575 6.579,-5.629 6.765,-5.904 6.711,-6.188 6.657,-6.472 6.386,-6.66 6.098,-6.605 5.823,-6.553 -0.65,-5.268 -0.537,-0.512 -0.53,-0.222 -0.29,0.007 0,0"
             style="fill:#4a4b4d;fill-opacity:1;fill-rule:nonzero;stroke:none"
             id="path138"
             inkscape:connector-curvature="0" /></g></g></g></g></svg>