<svg xmlns="http://www.w3.org/2000/svg" viewBox="0 0 35.463501 65.689125">
  <defs>
    <clipPath id="a">
      <path d="M0 52.551h28.371V0H0v52.551z"/>
    </clipPath>
  </defs>
  <g clip-path="url(#a)" transform="matrix(1.25,0,0,-1.25,0,65.689125)" fill="#fff">
    <path d="M22.3525 17.0497c-2.095-2.095-4.881-3.252-7.846-3.249h-.645c-6.116 0-11.095 4.978-11.095 11.094l.002 8.627c3.493-1.065 12.16-2.962 22.833.067v-8.693c.002-2.965-1.154-5.751-3.249-7.846m-16.337 29.482c2.02 2.019 4.679 3.15 7.521 3.235-.007-.038-.023-.073-.023-.113v-16.287c-5.091.062-8.947 1.05-10.745 1.617l.001 3.704c-.001 2.962 1.151 5.748 3.246 7.844m19.587-7.846l-.001-3.656c-3.887-1.139-7.53-1.592-10.744-1.658v16.282c0 .039-.016.073-.022.111 5.965-.174 10.767-5.069 10.767-11.079m-11.096 13.866l-.643-.002c-3.702 0-7.184-1.441-9.802-4.06-2.621-2.62-4.062-6.102-4.062-9.804l.001-13.79c0-7.645 6.219-13.864 13.864-13.864l.642.002c3.705-.002 7.185 1.44 9.803 4.059 2.619 2.618 4.061 6.098 4.059 9.803l.002 13.792c0 7.645-6.219 13.864-13.864 13.864"/>
    <path d="M22.8308 12.1016c-2.045-1.311-7.021-4.311-8.641-5.286l-8.668 5.298c-.472.288-1.087.139-1.375-.332-.288-.472-.139-1.087.332-1.375l9.185-5.614c.16-.097.341-.146.521-.146.179 0 .356.048.515.143.067.04 6.738 4.043 9.211 5.628.465.298.6.916.302 1.382-.298.465-.915.602-1.382.302"/>
    <path d="M20.658 6.1279c-1.51-.968-5.121-3.147-6.468-3.959l-6.496 3.971c-.471.288-1.087.138-1.374-.332-.288-.472-.14-1.087.331-1.375l7.013-4.286c.16-.098.341-.147.521-.147.179 0 .356.048.515.143.209.126 5.147 3.089 7.038 4.301.465.298.6.917.302 1.382-.299.465-.917.602-1.382.302"/>
  </g>
</svg>