<?xml version="1.0" encoding="UTF-8" standalone="no"?>
<!-- Created with Inkscape (http://www.inkscape.org/) -->

<svg
   xmlns:dc="http://purl.org/dc/elements/1.1/"
   xmlns:cc="http://creativecommons.org/ns#"
   xmlns:rdf="http://www.w3.org/1999/02/22-rdf-syntax-ns#"
   xmlns:svg="http://www.w3.org/2000/svg"
   xmlns="http://www.w3.org/2000/svg"
   xmlns:sodipodi="http://sodipodi.sourceforge.net/DTD/sodipodi-0.dtd"
   xmlns:inkscape="http://www.inkscape.org/namespaces/inkscape"
   id="svg2"
   version="1.1"
   inkscape:version="0.91 r13725"
   xml:space="preserve"
   width="161"
   height="121"
   viewBox="0 0 161 121"
   sodipodi:docname="icon-how-use-2.svg"><metadata
     id="metadata8"><rdf:RDF><cc:Work
         rdf:about=""><dc:format>image/svg+xml</dc:format><dc:type
           rdf:resource="http://purl.org/dc/dcmitype/StillImage" /><dc:title></dc:title></cc:Work></rdf:RDF></metadata><defs
     id="defs6"><clipPath
       clipPathUnits="userSpaceOnUse"
       id="clipPath44"><path
         d="m 0,56.229 78.177,0 L 78.177,0 0,0 0,56.229 Z"
         id="path46"
         inkscape:connector-curvature="0" /></clipPath><clipPath
       clipPathUnits="userSpaceOnUse"
       id="clipPath60"><path
         d="m 48.0297,20.3189 30.147,0 0,-17.54206 -30.147,0 0,17.54206 z"
         id="path62"
         inkscape:connector-curvature="0" /></clipPath></defs><sodipodi:namedview
     pagecolor="#ffffff"
     bordercolor="#666666"
     borderopacity="1"
     objecttolerance="10"
     gridtolerance="10"
     guidetolerance="10"
     inkscape:pageopacity="0"
     inkscape:pageshadow="2"
     inkscape:window-width="1920"
     inkscape:window-height="1017"
     id="namedview4"
     showgrid="false"
     inkscape:zoom="3.357728"
     inkscape:cx="48.860064"
     inkscape:cy="45.864345"
     inkscape:window-x="-8"
     inkscape:window-y="-8"
     inkscape:window-maximized="1"
     inkscape:current-layer="g10"
     fit-margin-top="0"
     fit-margin-left="0"
     fit-margin-right="0"
     fit-margin-bottom="0" /><g
     id="g10"
     inkscape:groupmode="layer"
     inkscape:label="icon-how-use-2"
     transform="matrix(1.25,0,0,-1.25,-3.7499999e-4,121.00001)"><g
       id="g4274"
       transform="matrix(1.647556,0,0,1.647556,-1.9426681e-4,2.1443044)"><g
         transform="translate(8.7543,27.9063)"
         id="g12"><path
           inkscape:connector-curvature="0"
           id="path14"
           style="fill:#d9e7ea;fill-opacity:1;fill-rule:nonzero;stroke:none"
           d="m 0,0 -8.754,-25.13 78.176,0 L 60.667,0 0,0 Z" /></g><g
         transform="translate(5.6679,6.8862)"
         id="g16"><path
           inkscape:connector-curvature="0"
           id="path18"
           style="fill:#fdc657;fill-opacity:1;fill-rule:nonzero;stroke:none"
           d="m 0,0 5.94,19.074 55.16,0 L 66.841,0 0,0 Z" /></g><g
         transform="translate(35.8075,15.359)"
         id="g20"><path
           inkscape:connector-curvature="0"
           id="path22"
           style="fill:#439163;fill-opacity:1;fill-rule:nonzero;stroke:none"
           d="m 0,0 -0.526,-8.473 -29.614,0 1.997,6.418 L 0,0 Z" /></g><g
         transform="translate(57.4196,22.169)"
         id="g24"><path
           inkscape:connector-curvature="0"
           id="path26"
           style="fill:#439163;fill-opacity:1;fill-rule:nonzero;stroke:none"
           d="m 0,0 -13.96,-1.258 -0.59,5.051 8.507,0 L 0,0 Z" /></g><g
         transform="translate(72.5092,6.8855)"
         id="g28"><path
           inkscape:connector-curvature="0"
           id="path30"
           style="fill:#439163;fill-opacity:1;fill-rule:nonzero;stroke:none"
           d="m 0,0 -20.984,0 19.829,3.819 0.008,0 L 0,0 Z" /></g><g
         transform="translate(68.8382,19.0766)"
         id="g32"><path
           inkscape:connector-curvature="0"
           id="path34"
           style="fill:#439163;fill-opacity:1;fill-rule:nonzero;stroke:none"
           d="M 0,0 -3.631,-0.266 -7.469,2.145 -0.829,2.743 0,0 Z" /></g><g
         transform="translate(43.6078,19.6199)"
         id="g36"><path
           inkscape:connector-curvature="0"
           id="path38"
           style="fill:#f5f6f6;fill-opacity:1;fill-rule:nonzero;stroke:none"
           d="M 0,0 15.628,1.407 19.414,-0.975 0.279,-2.367 0,0 Z m -5.757,-2.809 0.141,2.305 3.676,0.33 0.274,-2.336 -4.091,-0.299 z m 33.128,-4.856 -25.891,-4.992 -1.052,8.999 20.84,1.518 2.187,0.164 2.159,0.153 -0.384,1.28 -3.631,-0.267 -3.838,2.412 6.64,0.598 -0.376,1.263 -8.081,-0.728 -0.005,0 -5.732,3.607 -2.438,0 6.043,-3.793 -13.96,-1.258 -0.591,5.051 -1.965,0 0.617,-5.228 -3.45,-0.309 0.35,5.537 -1.946,0 -0.356,-5.713 -27.047,-2.433 -0.422,-1.347 27.384,2.47 -0.143,-2.271 -27.812,-2.035 -0.414,-1.329 28.143,2.055 -0.526,-8.473 1.946,0 0.539,8.617 4.325,0.316 1.05,-8.933 8.383,0 19.829,3.818 -0.375,1.251 z" /></g><g
         id="g40"><g
           clip-path="url(#clipPath44)"
           id="g42"><g
             transform="translate(32.5323,23.9647)"
             id="g48"><path
               inkscape:connector-curvature="0"
               id="path50"
               style="fill:#495aa6;fill-opacity:1;fill-rule:nonzero;stroke:none"
               d="m 0,0 c -0.76,-2.166 -3.352,-0.544 -4.974,-1.194 -2.158,-0.863 -4.428,-2.594 -7.023,-1.075 -0.433,0.323 -0.97,0.649 -1.083,1.188 -0.11,0.86 0.759,0.969 0.759,1.508 0.065,0.837 -0.26,1.214 -0.752,1.57 l 12.827,0 C 0.123,1.284 0.252,0.577 0,0" /></g><g
             transform="translate(48.0277,19.6393)"
             id="g52"><path
               inkscape:connector-curvature="0"
               id="path54"
               style="fill:#d3363e;fill-opacity:1;fill-rule:nonzero;stroke:none"
               d="m 0,0 c -0.238,0 -0.458,0.124 -0.581,0.328 l -9.011,14.864 c -2.132,3.241 -3.307,5.026 -3.307,8.504 0,7.283 6.123,13.213 13.422,12.88 l 0.105,0 c 6.894,-0.351 12.266,-6.008 12.266,-12.88 0,-3.454 -1.503,-5.717 -3.407,-8.581 L 8.79,14.06 0.582,0.33 C 0.459,0.126 0.239,0.001 0.001,0 L 0,0 Z" /></g><g
             id="g56"><g
               id="g58" /><g
               id="g64"><g
                 id="g66"
                 clip-path="url(#clipPath60)"><g
                   id="g68"
                   transform="translate(78.1767,2.7768)"><path
                     inkscape:connector-curvature="0"
                     id="path70"
                     style="fill:#bfbbb6;fill-opacity:1;fill-rule:nonzero;stroke:none"
                     d="m 0,0 -12.606,0 -17.541,17.542 24.038,0 L 0,0 Z" /></g></g></g></g><g
             transform="translate(56.1157,1.7673)"
             id="g72"><path
               inkscape:connector-curvature="0"
               id="path74"
               style="fill:#f6ba64;fill-opacity:1;fill-rule:nonzero;stroke:none"
               d="M 0,0 0.289,0" /></g><g
             transform="translate(56.1157,0.0063)"
             id="g76"><path
               inkscape:connector-curvature="0"
               id="path78"
               style="fill:#f6ba64;fill-opacity:1;fill-rule:nonzero;stroke:none"
               d="M 0,0 C 0.064,0.006 0.128,0.012 0.193,0.018 0.665,0.064 1.079,0.183 1.425,0.529 1.727,0.831 1.955,1.327 1.935,1.761 1.915,2.212 1.767,2.679 1.425,2.993 1.066,3.322 0.677,3.457 0.193,3.504 0.128,3.51 0.064,3.516 0,3.522 -0.424,3.563 -0.955,3.296 -1.245,3.006 -1.551,2.701 -1.781,2.2 -1.761,1.761 -1.722,0.882 -0.982,-0.094 0,0" /></g><g
             transform="translate(48.9961,15.8865)"
             id="g80"><path
               inkscape:connector-curvature="0"
               id="path82"
               style="fill:#474847;fill-opacity:1;fill-rule:nonzero;stroke:none"
               d="M 0,0 C -0.325,0.992 -0.65,1.983 -0.975,2.975 -1.223,3.733 -2.455,3.497 -2.204,2.732 -1.879,1.741 -1.554,0.749 -1.229,-0.243 -0.981,-1.001 0.251,-0.765 0,0" /></g><g
             transform="translate(49.493,18.165)"
             id="g84"><path
               inkscape:connector-curvature="0"
               id="path86"
               style="fill:#474847;fill-opacity:1;fill-rule:nonzero;stroke:none"
               d="m 0,0 c -1.141,-0.208 -2.245,-0.55 -3.307,-1.016 -0.741,-0.325 -0.186,-1.449 0.55,-1.126 0.967,0.424 1.961,0.723 3,0.913 C 1.038,-1.084 0.793,0.145 0,0" /></g><g
             transform="translate(33.0953,33.472)"
             id="g88"><path
               inkscape:connector-curvature="0"
               id="path90"
               style="fill:#fdc657;fill-opacity:1;fill-rule:nonzero;stroke:none"
               d="M 0,0 C -0.538,1.642 -1.076,3.284 -1.614,4.927 -2.025,6.182 -4.065,5.792 -3.65,4.525 -3.112,2.883 -2.574,1.24 -2.036,-0.402 -1.625,-1.658 0.415,-1.267 0,0" /></g><g
             transform="translate(33.9181,37.2451)"
             id="g92"><path
               inkscape:connector-curvature="0"
               id="path94"
               style="fill:#fdc657;fill-opacity:1;fill-rule:nonzero;stroke:none"
               d="m 0,0 c -1.89,-0.345 -3.718,-0.911 -5.477,-1.683 -1.226,-0.538 -0.308,-2.4 0.912,-1.865 1.601,0.703 3.247,1.198 4.967,1.512 C 1.719,-1.796 1.313,0.239 0,0" /></g><g
             transform="translate(48.0252,36.2972)"
             id="g96"><path
               inkscape:connector-curvature="0"
               id="path98"
               style="fill:#ffffff;fill-opacity:1;fill-rule:nonzero;stroke:none"
               d="m 0,0 c -3.77,0 -6.826,3.057 -6.826,6.827 0,3.77 3.056,6.825 6.826,6.825 3.77,0 6.826,-3.055 6.826,-6.825 C 6.826,3.057 3.77,0 0,0" /></g><g
             transform="translate(1.8035,15.7722)"
             id="g100"><path
               inkscape:connector-curvature="0"
               id="path102"
               style="fill:#474847;fill-opacity:1;fill-rule:nonzero;stroke:none"
               d="M 0,0 0.248,0" /></g><g
             transform="translate(1.8035,14.2602)"
             id="g104"><path
               inkscape:connector-curvature="0"
               id="path106"
               style="fill:#474847;fill-opacity:1;fill-rule:nonzero;stroke:none"
               d="M 0,0 C 0.055,0.005 0.11,0.011 0.165,0.016 0.571,0.055 0.926,0.157 1.223,0.454 1.483,0.714 1.678,1.139 1.662,1.512 1.644,1.899 1.517,2.3 1.223,2.57 0.915,2.853 0.581,2.968 0.165,3.008 0.11,3.013 0.055,3.019 0,3.024 -0.364,3.059 -0.82,2.83 -1.069,2.581 -1.331,2.319 -1.529,1.889 -1.512,1.512 -1.478,0.757 -0.843,-0.081 0,0" /></g><g
             transform="translate(5.1533,17.9748)"
             id="g108"><path
               inkscape:connector-curvature="0"
               id="path110"
               style="fill:#495aa6;fill-opacity:1;fill-rule:nonzero;stroke:none"
               d="M 0,0 0.132,0" /></g><g
             transform="translate(5.1533,17.1694)"
             id="g112"><path
               inkscape:connector-curvature="0"
               id="path114"
               style="fill:#495aa6;fill-opacity:1;fill-rule:nonzero;stroke:none"
               d="M 0,0 C 0.029,0.003 0.059,0.006 0.088,0.008 0.304,0.029 0.493,0.084 0.652,0.242 0.79,0.38 0.894,0.607 0.885,0.805 0.876,1.012 0.808,1.225 0.652,1.369 0.488,1.52 0.309,1.581 0.088,1.603 0.059,1.605 0.029,1.608 0,1.611 -0.194,1.629 -0.437,1.508 -0.57,1.375 -0.709,1.235 -0.814,1.006 -0.805,0.805 -0.787,0.403 -0.449,-0.043 0,0" /></g><g
             transform="translate(60.6973,33.27)"
             id="g116"><path
               inkscape:connector-curvature="0"
               id="path118"
               style="fill:#439163;fill-opacity:1;fill-rule:nonzero;stroke:none"
               d="M 0,0 0.156,0" /></g><g
             transform="translate(60.6973,32.3223)"
             id="g120"><path
               inkscape:connector-curvature="0"
               id="path122"
               style="fill:#439163;fill-opacity:1;fill-rule:nonzero;stroke:none"
               d="M 0,0 C 0.035,0.003 0.069,0.007 0.104,0.01 0.358,0.034 0.58,0.098 0.767,0.285 0.929,0.447 1.052,0.714 1.041,0.948 1.031,1.19 0.951,1.442 0.767,1.611 0.574,1.788 0.364,1.861 0.104,1.885 0.069,1.889 0.035,1.892 0,1.895 -0.228,1.917 -0.514,1.774 -0.67,1.618 -0.834,1.453 -0.958,1.184 -0.948,0.948 -0.927,0.475 -0.528,-0.051 0,0" /></g><g
             transform="translate(62.7834,27.1585)"
             id="g124"><path
               inkscape:connector-curvature="0"
               id="path126"
               style="fill:#439163;fill-opacity:1;fill-rule:nonzero;stroke:none"
               d="M 0,0 0.121,0" /></g><g
             transform="translate(62.7834,26.4194)"
             id="g128"><path
               inkscape:connector-curvature="0"
               id="path130"
               style="fill:#439163;fill-opacity:1;fill-rule:nonzero;stroke:none"
               d="M 0,0 C 0.027,0.003 0.054,0.005 0.081,0.008 0.279,0.027 0.453,0.077 0.598,0.222 0.725,0.349 0.82,0.557 0.812,0.739 0.804,0.928 0.742,1.124 0.598,1.256 0.447,1.394 0.284,1.451 0.081,1.47 0.054,1.473 0.027,1.475 0,1.478 -0.178,1.495 -0.401,1.383 -0.523,1.262 -0.651,1.133 -0.747,0.923 -0.739,0.739 -0.723,0.37 -0.412,-0.039 0,0" /></g><g
             transform="translate(58.8995,29.5027)"
             id="g132"><path
               inkscape:connector-curvature="0"
               id="path134"
               style="fill:#439163;fill-opacity:1;fill-rule:nonzero;stroke:none"
               d="M 0,0 0.243,0" /></g><g
             transform="translate(58.8995,28.0237)"
             id="g136"><path
               inkscape:connector-curvature="0"
               id="path138"
               style="fill:#439163;fill-opacity:1;fill-rule:nonzero;stroke:none"
               d="M 0,0 C 0.054,0.005 0.108,0.01 0.162,0.015 0.559,0.053 0.906,0.153 1.197,0.444 1.45,0.698 1.642,1.114 1.625,1.479 1.608,1.857 1.484,2.25 1.197,2.514 0.895,2.79 0.568,2.904 0.162,2.942 0.108,2.948 0.054,2.953 0,2.958 -0.356,2.992 -0.802,2.768 -1.046,2.525 -1.302,2.268 -1.495,1.847 -1.479,1.479 -1.446,0.741 -0.825,-0.079 0,0" /></g><g
             transform="translate(48.66,2.7055)"
             id="g140"><path
               inkscape:connector-curvature="0"
               id="path142"
               style="fill:#495aa6;fill-opacity:1;fill-rule:nonzero;stroke:none"
               d="M 0,0 0.104,0" /></g><g
             transform="translate(48.66,2.071)"
             id="g144"><path
               inkscape:connector-curvature="0"
               id="path146"
               style="fill:#495aa6;fill-opacity:1;fill-rule:nonzero;stroke:none"
               d="M 0,0 C 0.023,0.002 0.046,0.004 0.069,0.007 0.24,0.023 0.389,0.066 0.513,0.191 0.622,0.299 0.704,0.478 0.697,0.635 0.69,0.797 0.637,0.965 0.513,1.079 0.384,1.197 0.244,1.246 0.069,1.262 0.046,1.265 0.023,1.267 0,1.269 -0.153,1.284 -0.344,1.188 -0.449,1.083 -0.559,0.973 -0.642,0.793 -0.635,0.635 -0.62,0.318 -0.354,-0.034 0,0" /></g></g></g></g></g></svg>