<svg xmlns="http://www.w3.org/2000/svg" viewBox="0 0 118.4425 71.968002">
  <defs>
    <clipPath id="a">
      <path d="M0 57.574h94.754V0H0v57.574z"/>
    </clipPath>
  </defs>
  <g clip-path="url(#a)" fill="#fff" transform="matrix(1.25 0 0 -1.25 0 71.968)">
    <path d="M59.963 17.568l12.11-.001a4.082 4.082 0 1 1 3.897 5.297c-.027 0-.054-.003-.079-.004L71.51 34.208c1.418.41 2.912.633 4.461.633 8.869 0 16.06-7.189 16.06-16.058 0-8.868-7.19-16.06-16.06-16.06-8.46 0-15.386 6.544-16.008 14.845m12.215 2.715H59.984c.528 5.69 4.024 10.52 8.927 12.923l4.43-11.306a4.08 4.08 0 0 1-1.163-1.617m-18.613 5.431l10.492 19.875 3.856-9.838C62 32.939 57.796 27.127 57.253 20.284H55.91c-.123 2.592-.618 3.828-2.345 5.43m-4.849-9.42c-2.47 0-4.444 1.976-4.444 4.321 0 2.223 1.974 4.196 4.444 4.196 2.469 0 4.32-1.974 4.32-4.32 0-2.221-1.852-4.197-4.32-4.197M28.313 43.687l1.035 4.099 32.857.271-11.232-20.613c-1.236.246-1.729.246-2.098.246-.247 0-.742 0-1.729-.123l-1.112 2.962c1.358.246 1.605.495 1.605.742 0 .246-.247.74-.493 1.109h-3.579c-.865-.493-.865-.493-.865-.74s.37-.493 1.728-1.111l1.235-3.456c-.742-.247-.865-.493-1.482-.862l-15.87 17.476zm6.528-24.905c0-8.868-7.189-16.06-16.058-16.06-8.87 0-16.059 7.191-16.059 16.06S9.913 34.84 18.783 34.84c1.348 0 2.656-.168 3.907-.481l-3.336-11.541a4.148 4.148 0 0 1-.571.045 4.081 4.081 0 1 1 4.081-4.081 4.066 4.066 0 0 1-1.113 2.795l3.504 11.902c5.644-2.49 9.586-8.131 9.586-14.697m59.913 0c0 10.374-8.409 18.782-18.783 18.782-1.894 0-3.721-.283-5.445-.805l-4.122 10.68c-.742 2.22-1.976 3.209-4.445 3.209h-31.89c.263.967.512 1.928.897 3.38.265.999 1.911.827 2.73.827h5.359v2.694h-5.359c-2.245 0-4.548.464-5.329-2.578-.388-1.51-.912-3.396-1.145-4.229a1.476 1.476 0 0 1-.074-.216l-3.418-12.57-.282-.976a18.835 18.835 0 0 1-4.666.584C8.408 37.564 0 29.155 0 18.782 0 8.41 8.409 0 18.782 0s18.782 8.41 18.782 18.782c0 7.804-4.76 14.495-11.534 17.331l1.355 4.602 15.071-16.852c-.618-1.234-.989-2.221-.989-3.703 0-3.579 2.716-6.542 7.284-6.542.618 0 .985 0 1.851.122l1.234-3.085c-1.234-.493-1.356-.616-1.356-.863s.122-.37.863-.987h3.456c.371.493.617.864.617 1.111 0 .246 0 .493-1.605.739l-1.357 3.703c1.604 1.111 1.853 1.483 2.838 3.21l1.94-.001C57.858 7.76 66.005 0 75.97 0c10.374 0 18.784 8.41 18.784 18.782M69.734 55.152c0 1.357-.74 1.851-1.605 1.851h-7.776c-4.319 0-4.443-.493-4.812-3.456h12.836c1.109 0 1.357.247 1.357 1.605"/>
  </g>
</svg>